<svg xmlns="http://www.w3.org/2000/svg" xmlns:xlink="http://www.w3.org/1999/xlink" width="500" zoomAndPan="magnify" viewBox="0 0 375 374.999991" height="500" preserveAspectRatio="xMidYMid meet" version="1.0"><defs><g/><clipPath id="7cb53a0db8"><path d="M 167 168 L 194.5625 168 L 194.5625 204.871094 L 167 204.871094 Z M 167 168 " clip-rule="nonzero"/></clipPath><clipPath id="044a033ee5"><path d="M 154 156.871094 L 185 156.871094 L 185 204 L 154 204 Z M 154 156.871094 " clip-rule="nonzero"/></clipPath><clipPath id="4824e3d4c0"><path d="M 68.320312 166.078125 L 92.839844 166.078125 L 92.839844 187.5 L 68.320312 187.5 Z M 68.320312 166.078125 " clip-rule="nonzero"/></clipPath><clipPath id="6aa8d1ecca"><path d="M 80.5625 166.078125 L 92.804688 187.5 L 68.320312 187.5 Z M 80.5625 166.078125 " clip-rule="nonzero"/></clipPath><clipPath id="d555c66fe7"><path d="M 0.320312 0.078125 L 24.839844 0.078125 L 24.839844 21.5 L 0.320312 21.5 Z M 0.320312 0.078125 " clip-rule="nonzero"/></clipPath><clipPath id="33f0071269"><path d="M 12.5625 0.078125 L 24.804688 21.5 L 0.320312 21.5 Z M 12.5625 0.078125 " clip-rule="nonzero"/></clipPath><clipPath id="8dc45cb1a4"><rect x="0" width="25" y="0" height="22"/></clipPath><clipPath id="537ebcf671"><path d="M 69.941406 166.921875 L 90.941406 166.921875 L 90.941406 186.421875 L 69.941406 186.421875 Z M 69.941406 166.921875 " clip-rule="nonzero"/></clipPath></defs><g fill="#81a969" fill-opacity="0.4"><g transform="translate(56.143606, 203.625647)"><g><path d="M 29.859375 -51.421875 L 50.609375 0 L 38.015625 0 L 34.21875 -10.28125 L 14.640625 -10.28125 L 10.84375 0 L -1.75 0 L 19.015625 -51.421875 Z M 30.234375 -20.5625 L 24.5 -35.53125 L 24.375 -35.53125 L 18.640625 -20.5625 Z M 30.234375 -20.5625 "/></g></g></g><g fill="#81a969" fill-opacity="0.4"><g transform="translate(101.69926, 203.625647)"><g><path d="M 5.609375 -31.96875 L 5.609375 -38.765625 C 5.648438 -43.546875 6.769531 -47.367188 8.96875 -50.234375 C 11.175781 -53.097656 14.234375 -54.53125 18.140625 -54.53125 C 19.796875 -54.53125 21.382812 -54.289062 22.90625 -53.8125 C 24.425781 -53.34375 25.515625 -52.859375 26.171875 -52.359375 L 27.234375 -51.671875 L 23.375 -43.875 C 22.375 -44.457031 21.269531 -44.75 20.0625 -44.75 C 18.695312 -44.75 17.785156 -44.28125 17.328125 -43.34375 C 16.867188 -42.414062 16.640625 -40.785156 16.640625 -38.453125 L 16.640625 -31.96875 L 24 -31.96875 L 24 -23.5625 L 16.640625 -23.5625 L 16.640625 0 L 5.609375 0 L 5.609375 -23.5625 L 1 -23.5625 L 1 -31.96875 Z M 5.609375 -31.96875 "/></g></g></g><g fill="#81a969" fill-opacity="0.4"><g transform="translate(121.765935, 203.625647)"><g><path d="M 3.734375 0 L 3.734375 -31.96875 L 14.765625 -31.96875 L 14.765625 -27.359375 L 14.890625 -27.359375 C 14.972656 -27.523438 15.109375 -27.734375 15.296875 -27.984375 C 15.484375 -28.234375 15.890625 -28.671875 16.515625 -29.296875 C 17.140625 -29.921875 17.804688 -30.476562 18.515625 -30.96875 C 19.222656 -31.46875 20.132812 -31.914062 21.25 -32.3125 C 22.375 -32.707031 23.519531 -32.90625 24.6875 -32.90625 C 25.882812 -32.90625 27.066406 -32.738281 28.234375 -32.40625 C 29.398438 -32.070312 30.253906 -31.738281 30.796875 -31.40625 L 31.65625 -30.921875 L 27.046875 -21.5625 C 25.679688 -22.726562 23.769531 -23.3125 21.3125 -23.3125 C 19.988281 -23.3125 18.847656 -23.019531 17.890625 -22.4375 C 16.929688 -21.851562 16.253906 -21.144531 15.859375 -20.3125 C 15.460938 -19.488281 15.179688 -18.785156 15.015625 -18.203125 C 14.847656 -17.617188 14.765625 -17.160156 14.765625 -16.828125 L 14.765625 0 Z M 3.734375 0 "/></g></g></g><g fill="#231f20" fill-opacity="1"><g transform="translate(56.143606, 203.625647)"><g><path d="M 29.859375 -51.421875 L 50.609375 0 L 38.015625 0 L 34.21875 -10.28125 L 14.640625 -10.28125 L 10.84375 0 L -1.75 0 L 19.015625 -51.421875 Z M 30.234375 -20.5625 L 24.5 -35.53125 L 24.375 -35.53125 L 18.640625 -20.5625 Z M 30.234375 -20.5625 "/></g></g></g><g fill="#231f20" fill-opacity="1"><g transform="translate(101.69926, 203.625647)"><g><path d="M 5.609375 -31.96875 L 5.609375 -38.765625 C 5.648438 -43.546875 6.769531 -47.367188 8.96875 -50.234375 C 11.175781 -53.097656 14.234375 -54.53125 18.140625 -54.53125 C 19.796875 -54.53125 21.382812 -54.289062 22.90625 -53.8125 C 24.425781 -53.34375 25.515625 -52.859375 26.171875 -52.359375 L 27.234375 -51.671875 L 23.375 -43.875 C 22.375 -44.457031 21.269531 -44.75 20.0625 -44.75 C 18.695312 -44.75 17.785156 -44.28125 17.328125 -43.34375 C 16.867188 -42.414062 16.640625 -40.785156 16.640625 -38.453125 L 16.640625 -31.96875 L 24 -31.96875 L 24 -23.5625 L 16.640625 -23.5625 L 16.640625 0 L 5.609375 0 L 5.609375 -23.5625 L 1 -23.5625 L 1 -31.96875 Z M 5.609375 -31.96875 "/></g></g></g><g fill="#231f20" fill-opacity="1"><g transform="translate(121.765935, 203.625647)"><g><path d="M 3.734375 0 L 3.734375 -31.96875 L 14.765625 -31.96875 L 14.765625 -27.359375 L 14.890625 -27.359375 C 14.972656 -27.523438 15.109375 -27.734375 15.296875 -27.984375 C 15.484375 -28.234375 15.890625 -28.671875 16.515625 -29.296875 C 17.140625 -29.921875 17.804688 -30.476562 18.515625 -30.96875 C 19.222656 -31.46875 20.132812 -31.914062 21.25 -32.3125 C 22.375 -32.707031 23.519531 -32.90625 24.6875 -32.90625 C 25.882812 -32.90625 27.066406 -32.738281 28.234375 -32.40625 C 29.398438 -32.070312 30.253906 -31.738281 30.796875 -31.40625 L 31.65625 -30.921875 L 27.046875 -21.5625 C 25.679688 -22.726562 23.769531 -23.3125 21.3125 -23.3125 C 19.988281 -23.3125 18.847656 -23.019531 17.890625 -22.4375 C 16.929688 -21.851562 16.253906 -21.144531 15.859375 -20.3125 C 15.460938 -19.488281 15.179688 -18.785156 15.015625 -18.203125 C 14.847656 -17.617188 14.765625 -17.160156 14.765625 -16.828125 L 14.765625 0 Z M 3.734375 0 "/></g></g></g><g fill="#81a969" fill-opacity="0.4"><g transform="translate(149.506882, 203.625647)"><g/></g></g><g fill="#81a969" fill-opacity="0.4"><g transform="translate(163.216902, 203.625647)"><g/></g></g><g fill="#81a969" fill-opacity="0.4"><g transform="translate(176.926923, 203.625647)"><g/></g></g><g fill="#231f20" fill-opacity="1"><g transform="translate(149.506882, 203.625647)"><g/></g></g><g fill="#231f20" fill-opacity="1"><g transform="translate(163.216902, 203.625647)"><g/></g></g><g fill="#231f20" fill-opacity="1"><g transform="translate(176.926923, 203.625647)"><g/></g></g><g clip-path="url(#7cb53a0db8)"><path fill="#231f20" d="M 194.808594 185.503906 C 194.808594 196.03125 186.273438 204.566406 175.746094 204.566406 C 174.785156 204.566406 173.839844 204.496094 172.921875 204.355469 C 171.964844 203.742188 170.992188 202.980469 170.148438 202.058594 C 168.882812 200.554688 167.863281 198.96875 167.066406 197.363281 C 169.5 199.148438 172.5 200.199219 175.746094 200.199219 C 183.863281 200.199219 190.441406 193.617188 190.441406 185.503906 C 190.441406 179.886719 187.292969 175.007812 182.664062 172.53125 C 183.6875 171.585938 184.484375 170.476562 185.042969 169.203125 C 185.085938 169.109375 185.125 169.019531 185.160156 168.925781 C 190.921875 172.203125 194.808594 178.402344 194.808594 185.503906 Z M 194.808594 185.503906 " fill-opacity="1" fill-rule="nonzero"/></g><g clip-path="url(#044a033ee5)"><path fill="#88c932" d="M 168.742188 203.238281 C 162.4375 195.734375 161.796875 186.363281 164.414062 180.980469 C 166.613281 176.453125 171.914062 175.210938 177.113281 173.550781 C 185.710938 170.804688 185.078125 163.023438 182.238281 156.871094 C 177.71875 165.257812 159.203125 161.742188 154.859375 178.160156 C 151.078125 192.464844 163.605469 200.199219 163.605469 200.199219 C 152.066406 186.027344 160.152344 169.460938 174.746094 167.042969 C 165.085938 171.367188 158.855469 177.8125 160.230469 188.578125 C 161.496094 198.4375 168.742188 203.238281 168.742188 203.238281 Z M 168.742188 203.238281 " fill-opacity="1" fill-rule="nonzero"/></g><g clip-path="url(#4824e3d4c0)"><g clip-path="url(#6aa8d1ecca)"><g transform="matrix(1, 0, 0, 1, 68, 166)"><g clip-path="url(#8dc45cb1a4)"><g clip-path="url(#d555c66fe7)"><g clip-path="url(#33f0071269)"><path fill="#231f20" d="M 0.320312 0.078125 L 24.839844 0.078125 L 24.839844 21.5 L 0.320312 21.5 Z M 0.320312 0.078125 " fill-opacity="1" fill-rule="nonzero"/></g></g></g></g></g></g><g clip-path="url(#537ebcf671)"><path fill="#ffffff" d="M 81.390625 186.570312 C 81.363281 186.550781 81.347656 186.527344 81.347656 186.519531 C 81.351562 186.511719 81.339844 186.496094 81.324219 186.492188 C 81.308594 186.488281 81.292969 186.476562 81.292969 186.472656 C 81.292969 186.464844 81.273438 186.460938 81.25 186.464844 C 81.210938 186.472656 81.207031 186.46875 81.214844 186.433594 C 81.21875 186.40625 81.214844 186.394531 81.1875 186.386719 C 81.148438 186.375 81.128906 186.386719 81.128906 186.425781 C 81.128906 186.441406 81.121094 186.453125 81.113281 186.449219 C 81.09375 186.4375 81.085938 186.347656 81.101562 186.339844 C 81.117188 186.328125 81.117188 186.246094 81.097656 186.234375 C 81.082031 186.226562 81.015625 186.109375 81.015625 186.089844 C 81.015625 186.082031 81.007812 186.070312 80.996094 186.066406 C 80.949219 186.03125 80.96875 185.949219 81.023438 185.964844 C 81.058594 185.976562 81.078125 185.945312 81.085938 185.863281 C 81.101562 185.761719 81.070312 185.683594 80.953125 185.492188 C 80.882812 185.378906 80.832031 185.269531 80.789062 185.140625 C 80.710938 184.914062 80.632812 184.773438 80.574219 184.734375 C 80.457031 184.664062 80.246094 184.285156 80.273438 184.191406 C 80.277344 184.175781 80.269531 184.148438 80.25 184.128906 C 80.230469 184.097656 80.222656 184.050781 80.210938 183.898438 C 80.199219 183.726562 80.191406 183.691406 80.152344 183.613281 C 80.109375 183.53125 80.105469 183.507812 80.105469 183.382812 C 80.105469 183.304688 80.097656 183.21875 80.09375 183.1875 C 80.085938 183.148438 80.085938 183.136719 80.101562 183.144531 C 80.113281 183.152344 80.117188 183.136719 80.117188 183.097656 C 80.117188 183.039062 80.109375 183.023438 79.960938 182.789062 C 79.914062 182.714844 79.8125 182.527344 79.742188 182.378906 C 79.667969 182.226562 79.574219 182.058594 79.53125 182 C 79.421875 181.851562 79.40625 181.792969 79.414062 181.492188 C 79.417969 181.273438 79.421875 181.234375 79.445312 181.207031 C 79.460938 181.191406 79.480469 181.144531 79.492188 181.097656 C 79.503906 181.054688 79.523438 180.980469 79.535156 180.9375 C 79.550781 180.890625 79.558594 180.839844 79.558594 180.820312 C 79.558594 180.804688 79.570312 180.769531 79.582031 180.746094 C 79.59375 180.722656 79.605469 180.683594 79.605469 180.664062 C 79.605469 180.640625 79.621094 180.601562 79.640625 180.578125 C 79.660156 180.554688 79.691406 180.507812 79.710938 180.472656 C 79.734375 180.429688 79.761719 180.402344 79.792969 180.394531 C 79.886719 180.359375 79.941406 180.21875 79.933594 180.039062 C 79.929688 179.925781 79.921875 179.910156 79.855469 179.796875 C 79.816406 179.730469 79.78125 179.652344 79.777344 179.625 C 79.773438 179.59375 79.757812 179.550781 79.742188 179.523438 L 79.71875 179.472656 L 79.773438 179.417969 C 79.804688 179.390625 79.832031 179.359375 79.832031 179.347656 C 79.832031 179.339844 79.800781 179.265625 79.761719 179.1875 C 79.726562 179.109375 79.691406 179.019531 79.683594 178.992188 C 79.679688 178.964844 79.652344 178.910156 79.625 178.875 C 79.570312 178.800781 79.542969 178.730469 79.570312 178.722656 C 79.582031 178.71875 79.578125 178.703125 79.558594 178.675781 C 79.542969 178.652344 79.527344 178.605469 79.519531 178.570312 C 79.515625 178.535156 79.492188 178.480469 79.472656 178.453125 C 79.453125 178.421875 79.429688 178.382812 79.425781 178.367188 C 79.410156 178.332031 79.21875 178.125 78.992188 177.898438 C 78.832031 177.742188 78.820312 177.722656 78.730469 177.546875 C 78.679688 177.441406 78.640625 177.347656 78.640625 177.335938 C 78.640625 177.3125 78.644531 177.3125 78.65625 177.335938 C 78.667969 177.359375 78.675781 177.359375 78.695312 177.347656 C 78.707031 177.335938 78.714844 177.335938 78.714844 177.34375 C 78.714844 177.347656 78.734375 177.324219 78.753906 177.289062 C 78.777344 177.246094 78.789062 177.191406 78.789062 177.144531 C 78.792969 177.089844 78.796875 177.078125 78.804688 177.101562 C 78.8125 177.121094 78.832031 177.132812 78.875 177.132812 L 78.933594 177.136719 L 78.886719 177.121094 C 78.808594 177.097656 78.757812 176.984375 78.835938 177.003906 C 78.855469 177.011719 78.859375 177.003906 78.851562 176.957031 C 78.851562 176.925781 78.835938 176.898438 78.828125 176.890625 C 78.796875 176.875 78.800781 176.855469 78.847656 176.785156 C 78.882812 176.734375 78.894531 176.691406 78.917969 176.535156 C 78.945312 176.351562 78.945312 176.351562 78.914062 176.316406 C 78.863281 176.261719 78.847656 176.21875 78.867188 176.195312 C 78.878906 176.179688 78.878906 176.171875 78.863281 176.164062 C 78.851562 176.15625 78.84375 176.160156 78.839844 176.167969 C 78.832031 176.191406 78.789062 176.191406 78.789062 176.171875 C 78.789062 176.164062 78.785156 176.15625 78.777344 176.160156 C 78.726562 176.167969 78.683594 176.125 78.683594 176.0625 C 78.683594 176.023438 78.683594 176.019531 78.640625 176.027344 C 78.601562 176.035156 78.59375 176.035156 78.59375 176.011719 C 78.59375 175.996094 78.582031 175.976562 78.5625 175.964844 C 78.539062 175.949219 78.535156 175.949219 78.539062 175.980469 C 78.542969 176.007812 78.53125 176.015625 78.453125 176.023438 C 78.402344 176.03125 78.355469 176.03125 78.347656 176.023438 C 78.339844 176.015625 78.316406 176.015625 78.300781 176.023438 C 78.273438 176.03125 78.273438 176.035156 78.308594 176.035156 C 78.339844 176.039062 78.335938 176.042969 78.292969 176.050781 C 78.261719 176.058594 78.234375 176.058594 78.222656 176.050781 C 78.210938 176.039062 78.203125 176.039062 78.199219 176.050781 C 78.195312 176.0625 78.152344 176.070312 78.101562 176.074219 C 78.046875 176.074219 78 176.082031 77.996094 176.085938 C 77.984375 176.097656 77.882812 176.046875 77.851562 176.011719 C 77.824219 175.980469 77.796875 175.910156 77.785156 175.847656 C 77.78125 175.824219 77.769531 175.796875 77.757812 175.789062 C 77.746094 175.78125 77.71875 175.742188 77.691406 175.699219 C 77.621094 175.59375 77.539062 175.554688 77.40625 175.554688 C 77.308594 175.554688 77.269531 175.539062 77.316406 175.519531 C 77.328125 175.515625 77.324219 175.511719 77.308594 175.507812 C 77.292969 175.507812 77.28125 175.519531 77.28125 175.527344 C 77.28125 175.542969 77.242188 175.550781 77.113281 175.558594 C 76.929688 175.566406 76.707031 175.613281 76.695312 175.644531 C 76.679688 175.695312 76.632812 175.71875 76.550781 175.71875 C 76.484375 175.71875 76.445312 175.730469 76.351562 175.777344 C 76.289062 175.808594 76.214844 175.839844 76.1875 175.84375 C 76.160156 175.851562 76.082031 175.878906 76.015625 175.910156 L 75.894531 175.964844 L 75.777344 175.925781 C 75.710938 175.902344 75.640625 175.886719 75.617188 175.886719 C 75.59375 175.886719 75.582031 175.878906 75.585938 175.859375 C 75.589844 175.84375 75.585938 175.84375 75.582031 175.851562 C 75.578125 175.871094 75.558594 175.871094 75.5 175.863281 C 75.398438 175.847656 75.40625 175.847656 75.1875 175.867188 C 74.992188 175.882812 74.871094 175.917969 74.613281 176.023438 C 74.472656 176.082031 74.445312 176.078125 74.253906 175.984375 C 74.109375 175.914062 74.050781 175.871094 73.90625 175.730469 C 73.855469 175.683594 73.777344 175.628906 73.734375 175.605469 C 73.6875 175.585938 73.648438 175.5625 73.648438 175.554688 C 73.648438 175.546875 73.621094 175.53125 73.589844 175.515625 C 73.554688 175.5 73.511719 175.46875 73.492188 175.445312 C 73.46875 175.414062 73.289062 175.3125 73.210938 175.289062 C 73.207031 175.289062 73.179688 175.277344 73.152344 175.265625 C 73.101562 175.25 73.101562 175.246094 73.136719 175.230469 C 73.167969 175.210938 73.167969 175.210938 73.140625 175.191406 C 73.125 175.179688 73.113281 175.152344 73.113281 175.132812 C 73.113281 175.105469 73.105469 175.09375 73.082031 175.089844 C 73.066406 175.085938 73.042969 175.066406 73.035156 175.046875 C 73.019531 175.015625 73.019531 175.011719 73.046875 175.011719 C 73.066406 175.011719 73.074219 175 73.074219 174.984375 C 73.074219 174.96875 73.070312 174.964844 73.066406 174.976562 C 73.050781 175.015625 73.027344 174.996094 73.035156 174.949219 C 73.039062 174.925781 73.035156 174.902344 73.027344 174.894531 C 73.023438 174.890625 73.015625 174.871094 73.015625 174.851562 C 73.015625 174.832031 73.007812 174.816406 73 174.816406 C 72.992188 174.816406 72.984375 174.808594 72.984375 174.800781 C 72.984375 174.773438 72.941406 174.738281 72.925781 174.746094 C 72.914062 174.753906 72.914062 174.742188 72.925781 174.71875 C 72.9375 174.691406 72.9375 174.679688 72.925781 174.6875 C 72.917969 174.691406 72.910156 174.6875 72.910156 174.679688 C 72.910156 174.671875 72.902344 174.664062 72.890625 174.664062 C 72.875 174.664062 72.859375 174.652344 72.847656 174.636719 C 72.824219 174.605469 72.769531 174.574219 72.738281 174.574219 C 72.726562 174.574219 72.714844 174.5625 72.714844 174.550781 C 72.714844 174.539062 72.703125 174.519531 72.691406 174.507812 C 72.675781 174.492188 72.667969 174.476562 72.671875 174.472656 C 72.679688 174.46875 72.667969 174.453125 72.652344 174.4375 C 72.636719 174.417969 72.625 174.394531 72.628906 174.382812 C 72.632812 174.371094 72.632812 174.363281 72.621094 174.363281 C 72.613281 174.363281 72.601562 174.375 72.597656 174.394531 C 72.589844 174.429688 72.5625 174.433594 72.5625 174.394531 C 72.5625 174.382812 72.542969 174.355469 72.515625 174.34375 C 72.492188 174.324219 72.472656 174.304688 72.480469 174.292969 C 72.484375 174.285156 72.480469 174.269531 72.46875 174.269531 C 72.457031 174.265625 72.457031 174.253906 72.472656 174.234375 C 72.492188 174.210938 72.492188 174.207031 72.464844 174.21875 C 72.4375 174.226562 72.433594 174.222656 72.441406 174.1875 C 72.445312 174.167969 72.460938 174.144531 72.480469 174.136719 C 72.5 174.128906 72.503906 174.125 72.488281 174.121094 C 72.472656 174.121094 72.449219 174.132812 72.433594 174.144531 C 72.417969 174.15625 72.390625 174.164062 72.371094 174.167969 C 72.34375 174.167969 72.335938 174.160156 72.34375 174.140625 C 72.351562 174.117188 72.351562 174.117188 72.332031 174.140625 C 72.308594 174.167969 72.308594 174.167969 72.269531 174.128906 C 72.242188 174.097656 72.234375 174.082031 72.246094 174.066406 C 72.261719 174.054688 72.257812 174.050781 72.234375 174.054688 C 72.21875 174.0625 72.1875 174.046875 72.164062 174.027344 C 72.121094 173.988281 72.121094 173.988281 72.148438 173.964844 C 72.164062 173.953125 72.1875 173.945312 72.203125 173.953125 C 72.21875 173.957031 72.21875 173.957031 72.203125 173.945312 C 72.191406 173.9375 72.171875 173.933594 72.15625 173.9375 C 72.132812 173.941406 72.128906 173.929688 72.121094 173.855469 C 72.113281 173.761719 72.132812 173.707031 72.164062 173.71875 C 72.195312 173.734375 72.191406 173.675781 72.160156 173.644531 C 72.144531 173.628906 72.121094 173.585938 72.105469 173.546875 C 72.078125 173.46875 72.003906 173.390625 71.96875 173.402344 C 71.957031 173.40625 71.941406 173.40625 71.9375 173.398438 C 71.933594 173.390625 71.949219 173.378906 71.972656 173.371094 C 72.027344 173.351562 72.117188 173.265625 72.152344 173.199219 C 72.164062 173.171875 72.1875 173.085938 72.195312 173.011719 C 72.207031 172.933594 72.234375 172.828125 72.257812 172.777344 C 72.335938 172.59375 72.316406 172.300781 72.222656 172.203125 C 72.199219 172.179688 72.191406 172.160156 72.199219 172.160156 C 72.210938 172.160156 72.214844 172.144531 72.214844 172.113281 C 72.210938 172.054688 72.230469 172.011719 72.246094 172.039062 C 72.253906 172.050781 72.257812 172.027344 72.261719 171.992188 C 72.261719 171.914062 72.222656 171.808594 72.195312 171.828125 C 72.179688 171.839844 72.164062 171.824219 72.132812 171.769531 C 72.09375 171.691406 72.066406 171.6875 72.066406 171.761719 C 72.066406 171.789062 72.0625 171.789062 72.050781 171.765625 C 72.027344 171.730469 72.058594 171.546875 72.097656 171.457031 C 72.113281 171.421875 72.140625 171.386719 72.164062 171.375 C 72.1875 171.363281 72.207031 171.335938 72.21875 171.304688 C 72.238281 171.246094 72.246094 171.230469 72.328125 171.066406 C 72.382812 170.957031 72.398438 170.914062 72.363281 170.964844 C 72.351562 170.980469 72.335938 170.988281 72.332031 170.984375 C 72.328125 170.980469 72.386719 170.914062 72.464844 170.835938 C 72.585938 170.722656 72.609375 170.691406 72.617188 170.644531 C 72.632812 170.53125 72.671875 170.386719 72.703125 170.320312 C 72.730469 170.273438 72.757812 170.246094 72.808594 170.214844 C 72.917969 170.15625 72.949219 170.117188 73.011719 169.960938 C 73.078125 169.800781 73.109375 169.769531 73.21875 169.753906 C 73.328125 169.742188 73.441406 169.695312 73.492188 169.640625 C 73.515625 169.617188 73.585938 169.558594 73.644531 169.515625 C 73.699219 169.472656 73.785156 169.390625 73.828125 169.339844 C 73.945312 169.1875 73.976562 169.09375 73.925781 169.039062 C 73.90625 169.015625 73.898438 168.980469 73.898438 168.902344 C 73.894531 168.78125 73.910156 168.726562 73.980469 168.628906 C 74.003906 168.59375 74.03125 168.535156 74.039062 168.496094 C 74.046875 168.453125 74.0625 168.410156 74.074219 168.394531 C 74.191406 168.242188 74.214844 168.222656 74.359375 168.15625 C 74.558594 168.0625 74.585938 168.046875 74.640625 167.996094 C 74.703125 167.9375 74.78125 167.785156 74.816406 167.660156 C 74.867188 167.480469 74.882812 167.449219 74.9375 167.421875 C 75.019531 167.382812 75.046875 167.390625 75.066406 167.449219 C 75.085938 167.511719 75.167969 167.589844 75.226562 167.605469 C 75.253906 167.613281 75.300781 167.613281 75.335938 167.609375 C 75.371094 167.601562 75.441406 167.601562 75.496094 167.605469 C 75.578125 167.609375 75.597656 167.605469 75.621094 167.578125 C 75.652344 167.550781 75.652344 167.550781 75.667969 167.589844 C 75.679688 167.628906 75.691406 167.632812 75.761719 167.636719 C 75.804688 167.640625 75.863281 167.644531 75.886719 167.644531 C 75.957031 167.644531 76.074219 167.582031 76.101562 167.53125 C 76.128906 167.476562 76.179688 167.441406 76.230469 167.441406 C 76.253906 167.441406 76.277344 167.429688 76.285156 167.417969 C 76.296875 167.394531 76.304688 167.394531 76.347656 167.414062 C 76.394531 167.429688 76.398438 167.429688 76.414062 167.40625 C 76.496094 167.269531 76.59375 167.222656 76.867188 167.191406 C 77.003906 167.175781 77.09375 167.15625 77.117188 167.140625 C 77.140625 167.125 77.1875 167.117188 77.242188 167.113281 C 77.289062 167.113281 77.335938 167.105469 77.347656 167.097656 C 77.386719 167.058594 77.71875 167.089844 77.71875 167.132812 C 77.71875 167.164062 77.769531 167.160156 77.835938 167.125 C 77.867188 167.109375 77.910156 167.097656 77.933594 167.097656 C 77.960938 167.097656 77.984375 167.082031 78 167.058594 C 78.027344 167.015625 78.0625 167.011719 78.105469 167.042969 C 78.121094 167.054688 78.164062 167.066406 78.199219 167.066406 C 78.253906 167.066406 78.265625 167.0625 78.257812 167.042969 C 78.25 167.023438 78.253906 167.019531 78.28125 167.027344 C 78.300781 167.03125 78.332031 167.042969 78.351562 167.046875 C 78.375 167.050781 78.398438 167.0625 78.402344 167.074219 C 78.410156 167.085938 78.425781 167.09375 78.441406 167.089844 C 78.457031 167.082031 78.503906 167.078125 78.542969 167.074219 C 78.59375 167.070312 78.644531 167.050781 78.707031 167.015625 C 78.816406 166.949219 78.875 166.9375 78.960938 166.960938 C 79.011719 166.980469 79.023438 166.988281 79.019531 167.015625 C 79.015625 167.035156 79.023438 167.050781 79.03125 167.058594 C 79.039062 167.0625 79.046875 167.082031 79.046875 167.097656 C 79.046875 167.136719 79.078125 167.132812 79.144531 167.082031 C 79.210938 167.027344 79.21875 167.027344 79.242188 167.058594 C 79.257812 167.074219 79.253906 167.089844 79.230469 167.121094 C 79.214844 167.144531 79.199219 167.175781 79.191406 167.191406 C 79.1875 167.203125 79.164062 167.222656 79.144531 167.234375 C 79.066406 167.269531 79.078125 167.375 79.167969 167.441406 C 79.203125 167.464844 79.230469 167.492188 79.230469 167.496094 C 79.230469 167.503906 79.238281 167.53125 79.242188 167.558594 C 79.261719 167.636719 79.203125 167.738281 79.078125 167.839844 C 79.019531 167.886719 78.972656 167.9375 78.972656 167.953125 C 78.972656 167.980469 79.011719 168.042969 79.046875 168.070312 C 79.058594 168.082031 79.089844 168.089844 79.113281 168.085938 C 79.15625 168.082031 79.160156 168.085938 79.15625 168.121094 L 79.148438 168.160156 L 79.1875 168.125 C 79.214844 168.097656 79.226562 168.09375 79.238281 168.109375 C 79.25 168.117188 79.257812 168.140625 79.257812 168.152344 C 79.257812 168.167969 79.265625 168.183594 79.273438 168.1875 C 79.28125 168.195312 79.285156 168.207031 79.277344 168.214844 C 79.273438 168.222656 79.28125 168.226562 79.296875 168.226562 C 79.328125 168.222656 79.378906 168.238281 79.503906 168.304688 C 79.578125 168.34375 79.601562 168.347656 79.660156 168.339844 C 79.828125 168.316406 79.929688 168.335938 80.066406 168.40625 C 80.117188 168.433594 80.175781 168.453125 80.210938 168.453125 C 80.285156 168.453125 80.320312 168.488281 80.335938 168.578125 C 80.347656 168.652344 80.390625 168.726562 80.449219 168.773438 C 80.472656 168.789062 80.535156 168.804688 80.613281 168.816406 C 80.84375 168.84375 81.050781 168.929688 81.164062 169.042969 C 81.214844 169.09375 81.257812 169.109375 81.328125 169.09375 C 81.433594 169.074219 81.550781 168.960938 81.550781 168.875 C 81.550781 168.851562 81.535156 168.796875 81.519531 168.75 C 81.480469 168.652344 81.488281 168.597656 81.558594 168.515625 C 81.617188 168.445312 81.757812 168.363281 81.816406 168.363281 C 81.839844 168.363281 81.875 168.351562 81.894531 168.335938 C 81.917969 168.324219 81.96875 168.308594 82.007812 168.308594 C 82.070312 168.304688 82.105469 168.3125 82.199219 168.359375 C 82.292969 168.40625 82.3125 168.421875 82.316406 168.457031 C 82.320312 168.511719 82.339844 168.523438 82.445312 168.542969 C 82.496094 168.550781 82.542969 168.566406 82.550781 168.574219 C 82.558594 168.582031 82.613281 168.589844 82.675781 168.589844 C 82.789062 168.589844 82.804688 168.597656 82.824219 168.667969 C 82.839844 168.730469 82.859375 168.738281 82.949219 168.722656 C 83.019531 168.710938 83.0625 168.710938 83.191406 168.738281 C 83.28125 168.757812 83.378906 168.785156 83.410156 168.800781 C 83.441406 168.816406 83.476562 168.828125 83.492188 168.828125 C 83.503906 168.828125 83.535156 168.832031 83.558594 168.84375 C 83.582031 168.851562 83.617188 168.859375 83.636719 168.859375 C 83.652344 168.859375 83.703125 168.875 83.75 168.898438 C 83.792969 168.917969 83.84375 168.933594 83.863281 168.933594 C 83.882812 168.933594 83.941406 168.902344 83.996094 168.863281 C 84.050781 168.820312 84.101562 168.792969 84.117188 168.796875 C 84.132812 168.800781 84.148438 168.792969 84.152344 168.773438 C 84.15625 168.753906 84.171875 168.746094 84.210938 168.746094 C 84.242188 168.746094 84.253906 168.75 84.246094 168.757812 C 84.214844 168.773438 84.253906 168.773438 84.300781 168.753906 C 84.324219 168.746094 84.335938 168.730469 84.332031 168.722656 C 84.316406 168.703125 84.363281 168.707031 84.414062 168.730469 C 84.441406 168.746094 84.476562 168.75 84.503906 168.746094 C 84.550781 168.734375 84.554688 168.738281 84.546875 168.773438 C 84.539062 168.804688 84.546875 168.816406 84.566406 168.824219 C 84.582031 168.828125 84.59375 168.839844 84.59375 168.84375 C 84.59375 168.851562 84.605469 168.859375 84.617188 168.859375 C 84.628906 168.859375 84.640625 168.847656 84.640625 168.828125 L 84.640625 168.796875 L 84.691406 168.828125 C 84.75 168.867188 84.8125 168.867188 84.847656 168.835938 C 84.878906 168.804688 84.894531 168.808594 84.886719 168.847656 C 84.878906 168.875 84.878906 168.878906 84.898438 168.867188 C 84.910156 168.855469 84.949219 168.847656 84.980469 168.847656 C 85.015625 168.847656 85.066406 168.835938 85.09375 168.820312 C 85.117188 168.808594 85.144531 168.800781 85.148438 168.804688 C 85.15625 168.816406 85.273438 169.148438 85.296875 169.238281 L 85.320312 169.324219 L 85.261719 169.507812 C 85.226562 169.609375 85.199219 169.710938 85.199219 169.734375 C 85.199219 169.757812 85.1875 169.792969 85.171875 169.808594 L 85.144531 169.84375 L 85.066406 169.78125 C 84.960938 169.695312 84.886719 169.605469 84.875 169.539062 C 84.867188 169.511719 84.839844 169.445312 84.804688 169.394531 C 84.773438 169.34375 84.742188 169.28125 84.738281 169.253906 C 84.730469 169.207031 84.726562 169.207031 84.707031 169.230469 C 84.679688 169.269531 84.679688 169.308594 84.714844 169.351562 C 84.730469 169.375 84.746094 169.410156 84.746094 169.433594 C 84.746094 169.496094 84.8125 169.613281 84.902344 169.714844 C 84.96875 169.785156 84.988281 169.816406 84.984375 169.851562 C 84.984375 169.875 85.007812 169.9375 85.039062 169.996094 C 85.066406 170.050781 85.09375 170.113281 85.09375 170.128906 C 85.09375 170.148438 85.140625 170.253906 85.199219 170.367188 C 85.261719 170.480469 85.335938 170.625 85.367188 170.691406 C 85.40625 170.769531 85.449219 170.832031 85.488281 170.867188 C 85.546875 170.921875 85.550781 170.925781 85.515625 170.925781 C 85.480469 170.925781 85.480469 170.925781 85.488281 171.03125 C 85.496094 171.15625 85.519531 171.195312 85.621094 171.265625 C 85.757812 171.355469 85.832031 171.421875 85.832031 171.460938 C 85.832031 171.480469 85.847656 171.535156 85.863281 171.585938 C 85.882812 171.632812 85.898438 171.6875 85.898438 171.710938 C 85.902344 171.730469 85.910156 171.84375 85.921875 171.964844 C 85.945312 172.234375 85.972656 172.328125 86.03125 172.34375 C 86.082031 172.359375 86.148438 172.414062 86.148438 172.441406 C 86.148438 172.453125 86.160156 172.464844 86.179688 172.464844 C 86.195312 172.464844 86.222656 172.476562 86.242188 172.496094 C 86.3125 172.554688 86.417969 172.832031 86.417969 172.949219 C 86.417969 172.996094 86.480469 173.144531 86.515625 173.1875 C 86.527344 173.199219 86.539062 173.226562 86.546875 173.25 C 86.558594 173.304688 86.578125 173.304688 86.578125 173.25 C 86.578125 173.183594 86.605469 173.191406 86.640625 173.265625 C 86.675781 173.332031 86.679688 173.339844 86.71875 173.332031 C 86.753906 173.324219 86.769531 173.328125 86.792969 173.359375 C 86.808594 173.378906 86.835938 173.398438 86.855469 173.398438 C 86.890625 173.398438 87.015625 173.507812 87.03125 173.550781 C 87.035156 173.566406 87.074219 173.601562 87.121094 173.632812 C 87.179688 173.671875 87.207031 173.699219 87.21875 173.738281 C 87.226562 173.765625 87.246094 173.789062 87.253906 173.789062 C 87.265625 173.789062 87.292969 173.8125 87.3125 173.839844 C 87.339844 173.875 87.363281 173.890625 87.378906 173.886719 C 87.398438 173.882812 87.417969 173.898438 87.441406 173.933594 C 87.515625 174.054688 87.503906 174.109375 87.394531 174.160156 C 87.316406 174.191406 87.257812 174.242188 87.289062 174.242188 C 87.300781 174.242188 87.3125 174.234375 87.316406 174.226562 C 87.320312 174.21875 87.351562 174.210938 87.382812 174.210938 C 87.445312 174.214844 87.5 174.253906 87.539062 174.335938 C 87.570312 174.394531 87.652344 174.46875 87.738281 174.507812 C 87.78125 174.53125 87.800781 174.53125 87.851562 174.515625 C 87.886719 174.503906 87.945312 174.476562 87.976562 174.457031 C 88.03125 174.417969 88.050781 174.414062 88.191406 174.414062 C 88.335938 174.414062 88.34375 174.414062 88.421875 174.363281 C 88.492188 174.320312 88.507812 174.316406 88.570312 174.324219 C 88.609375 174.328125 88.671875 174.324219 88.722656 174.3125 C 88.769531 174.300781 88.859375 174.285156 88.921875 174.28125 C 88.980469 174.273438 89.042969 174.265625 89.054688 174.257812 C 89.070312 174.25 89.117188 174.238281 89.164062 174.226562 C 89.222656 174.214844 89.261719 174.195312 89.300781 174.15625 C 89.347656 174.109375 89.359375 174.105469 89.410156 174.113281 C 89.4375 174.121094 89.472656 174.132812 89.488281 174.140625 C 89.507812 174.15625 89.507812 174.164062 89.480469 174.222656 C 89.460938 174.265625 89.453125 174.296875 89.460938 174.308594 C 89.46875 174.316406 89.472656 174.367188 89.464844 174.417969 C 89.460938 174.472656 89.460938 174.511719 89.46875 174.511719 C 89.472656 174.511719 89.480469 174.507812 89.480469 174.5 C 89.480469 174.492188 89.492188 174.488281 89.511719 174.492188 C 89.558594 174.507812 89.542969 174.527344 89.488281 174.527344 C 89.421875 174.527344 89.410156 174.550781 89.402344 174.683594 C 89.394531 174.765625 89.386719 174.792969 89.34375 174.84375 C 89.316406 174.878906 89.277344 174.941406 89.257812 174.984375 C 89.238281 175.027344 89.203125 175.082031 89.1875 175.109375 C 89.167969 175.132812 89.128906 175.195312 89.101562 175.246094 C 89.078125 175.292969 89.03125 175.375 89.003906 175.425781 C 88.976562 175.472656 88.953125 175.535156 88.945312 175.566406 C 88.9375 175.628906 88.882812 175.710938 88.683594 175.984375 C 88.480469 176.257812 88.1875 176.550781 88.039062 176.632812 C 87.773438 176.777344 87.753906 176.792969 87.363281 177.175781 C 87.234375 177.300781 87.15625 177.394531 87.09375 177.5 C 87.019531 177.621094 86.984375 177.660156 86.9375 177.671875 C 86.917969 177.675781 86.902344 177.6875 86.90625 177.691406 C 86.910156 177.699219 86.902344 177.714844 86.886719 177.730469 C 86.871094 177.742188 86.855469 177.75 86.855469 177.742188 C 86.855469 177.738281 86.847656 177.746094 86.839844 177.765625 C 86.832031 177.785156 86.804688 177.804688 86.769531 177.816406 C 86.695312 177.835938 86.683594 177.851562 86.671875 177.933594 C 86.667969 177.972656 86.652344 178.011719 86.644531 178.019531 C 86.613281 178.039062 86.585938 178.097656 86.585938 178.128906 C 86.582031 178.164062 86.546875 178.210938 86.53125 178.195312 C 86.527344 178.191406 86.523438 178.191406 86.53125 178.203125 C 86.546875 178.234375 86.5 178.328125 86.460938 178.34375 C 86.433594 178.351562 86.421875 178.371094 86.414062 178.414062 C 86.40625 178.445312 86.386719 178.511719 86.367188 178.5625 C 86.34375 178.617188 86.328125 178.6875 86.328125 178.726562 C 86.328125 178.785156 86.332031 178.796875 86.367188 178.808594 C 86.386719 178.816406 86.414062 178.839844 86.425781 178.863281 C 86.441406 178.882812 86.464844 178.902344 86.480469 178.910156 C 86.515625 178.921875 86.515625 178.945312 86.480469 179.015625 C 86.441406 179.085938 86.441406 179.117188 86.472656 179.164062 C 86.496094 179.195312 86.496094 179.203125 86.472656 179.246094 C 86.441406 179.304688 86.441406 179.320312 86.476562 179.382812 C 86.492188 179.414062 86.503906 179.445312 86.5 179.457031 C 86.496094 179.464844 86.503906 179.484375 86.519531 179.496094 C 86.535156 179.507812 86.542969 179.523438 86.535156 179.542969 C 86.527344 179.554688 86.53125 179.578125 86.539062 179.585938 C 86.550781 179.597656 86.558594 179.632812 86.558594 179.660156 C 86.5625 179.691406 86.570312 179.714844 86.578125 179.714844 C 86.589844 179.714844 86.613281 179.730469 86.636719 179.753906 C 86.65625 179.773438 86.679688 179.789062 86.683594 179.789062 C 86.703125 179.789062 86.734375 179.816406 86.753906 179.851562 C 86.78125 179.890625 86.777344 179.957031 86.75 180.035156 C 86.738281 180.058594 86.738281 180.101562 86.742188 180.132812 C 86.746094 180.164062 86.753906 180.230469 86.757812 180.285156 C 86.761719 180.335938 86.769531 180.390625 86.78125 180.40625 C 86.792969 180.429688 86.789062 180.441406 86.773438 180.453125 C 86.757812 180.46875 86.753906 180.476562 86.765625 180.492188 C 86.773438 180.503906 86.777344 180.539062 86.773438 180.578125 C 86.769531 180.613281 86.773438 180.667969 86.78125 180.695312 C 86.796875 180.734375 86.796875 180.757812 86.78125 180.78125 C 86.769531 180.808594 86.769531 180.816406 86.789062 180.816406 C 86.808594 180.816406 86.808594 180.824219 86.804688 180.847656 C 86.796875 180.867188 86.796875 180.875 86.808594 180.871094 C 86.832031 180.855469 86.847656 180.925781 86.832031 180.96875 C 86.824219 180.988281 86.820312 181.007812 86.824219 181.015625 C 86.824219 181.023438 86.816406 181.03125 86.804688 181.035156 C 86.789062 181.042969 86.785156 181.058594 86.789062 181.085938 C 86.796875 181.117188 86.78125 181.144531 86.699219 181.238281 C 86.644531 181.300781 86.601562 181.359375 86.601562 181.367188 C 86.597656 181.386719 86.546875 181.4375 86.488281 181.472656 C 86.460938 181.488281 86.429688 181.511719 86.410156 181.527344 C 86.394531 181.539062 86.355469 181.558594 86.320312 181.566406 C 86.25 181.585938 86.164062 181.613281 86.132812 181.632812 C 86.121094 181.636719 86.070312 181.664062 86.019531 181.691406 C 85.925781 181.742188 85.847656 181.804688 85.847656 181.832031 C 85.847656 181.84375 85.824219 181.871094 85.800781 181.894531 C 85.773438 181.917969 85.734375 181.964844 85.714844 181.996094 C 85.6875 182.042969 85.671875 182.054688 85.644531 182.046875 C 85.617188 182.039062 85.589844 182.0625 85.492188 182.167969 C 85.402344 182.261719 85.355469 182.296875 85.328125 182.296875 C 85.292969 182.300781 85.289062 182.308594 85.289062 182.347656 C 85.285156 182.371094 85.28125 182.410156 85.277344 182.433594 C 85.273438 182.46875 85.28125 182.488281 85.316406 182.527344 C 85.351562 182.5625 85.367188 182.589844 85.371094 182.644531 C 85.375 182.679688 85.390625 182.753906 85.410156 182.804688 C 85.429688 182.863281 85.4375 182.917969 85.433594 182.953125 C 85.425781 183.007812 85.425781 183.007812 85.441406 182.96875 C 85.453125 182.945312 85.464844 182.925781 85.46875 182.925781 C 85.476562 182.925781 85.484375 182.988281 85.488281 183.0625 C 85.496094 183.191406 85.488281 183.25 85.449219 183.375 C 85.4375 183.402344 85.441406 183.40625 85.460938 183.398438 C 85.503906 183.382812 85.488281 183.472656 85.441406 183.542969 C 85.382812 183.621094 85.363281 183.632812 85.121094 183.726562 C 84.898438 183.8125 84.796875 183.875 84.78125 183.925781 C 84.777344 183.945312 84.761719 183.96875 84.75 183.984375 C 84.734375 184.003906 84.734375 184.011719 84.761719 184.042969 C 84.785156 184.074219 84.792969 184.078125 84.808594 184.058594 C 84.835938 184.019531 84.8125 184.253906 84.769531 184.441406 C 84.722656 184.65625 84.671875 184.761719 84.601562 184.8125 C 84.492188 184.886719 84.421875 184.960938 84.378906 185.046875 C 84.355469 185.09375 84.320312 185.160156 84.304688 185.195312 C 84.230469 185.339844 84.105469 185.507812 84.007812 185.589844 C 83.953125 185.632812 83.875 185.714844 83.835938 185.765625 C 83.753906 185.875 83.625 185.996094 83.460938 186.121094 C 83.296875 186.25 83.222656 186.28125 83.097656 186.28125 C 83.015625 186.28125 82.988281 186.285156 82.972656 186.308594 C 82.960938 186.324219 82.957031 186.347656 82.960938 186.359375 C 82.96875 186.378906 82.964844 186.382812 82.925781 186.375 C 82.789062 186.34375 82.789062 186.34375 82.769531 186.382812 C 82.753906 186.433594 82.730469 186.433594 82.617188 186.394531 C 82.519531 186.359375 82.398438 186.355469 82.390625 186.382812 C 82.386719 186.394531 82.363281 186.394531 82.296875 186.382812 C 82.160156 186.355469 82.132812 186.359375 82.054688 186.417969 C 81.988281 186.46875 81.976562 186.472656 81.867188 186.472656 C 81.800781 186.476562 81.746094 186.480469 81.746094 186.488281 C 81.746094 186.496094 81.722656 186.5 81.695312 186.5 C 81.660156 186.5 81.632812 186.511719 81.59375 186.550781 C 81.53125 186.617188 81.460938 186.625 81.390625 186.570312 Z M 73.222656 175.238281 C 73.214844 175.222656 73.203125 175.210938 73.199219 175.214844 C 73.191406 175.222656 73.226562 175.265625 73.238281 175.265625 C 73.238281 175.265625 73.234375 175.253906 73.222656 175.238281 Z M 72.332031 173.945312 C 72.328125 173.941406 72.316406 173.941406 72.304688 173.945312 C 72.292969 173.949219 72.296875 173.953125 72.3125 173.953125 C 72.328125 173.957031 72.339844 173.953125 72.332031 173.945312 Z M 87.882812 183.855469 C 87.859375 183.832031 87.824219 183.816406 87.804688 183.816406 C 87.785156 183.816406 87.738281 183.796875 87.707031 183.773438 C 87.617188 183.707031 87.558594 183.550781 87.558594 183.386719 C 87.558594 183.28125 87.550781 183.253906 87.507812 183.167969 C 87.445312 183.039062 87.433594 182.925781 87.476562 182.84375 C 87.492188 182.808594 87.503906 182.769531 87.503906 182.75 C 87.503906 182.726562 87.519531 182.707031 87.550781 182.691406 C 87.582031 182.675781 87.609375 182.640625 87.632812 182.589844 C 87.652344 182.546875 87.6875 182.476562 87.714844 182.4375 C 87.753906 182.375 87.757812 182.351562 87.753906 182.28125 C 87.753906 182.234375 87.742188 182.171875 87.726562 182.148438 C 87.710938 182.121094 87.699219 182.085938 87.699219 182.066406 C 87.699219 182.050781 87.6875 181.996094 87.671875 181.945312 C 87.65625 181.898438 87.640625 181.8125 87.636719 181.753906 C 87.632812 181.65625 87.636719 181.644531 87.6875 181.570312 C 87.722656 181.515625 87.746094 181.460938 87.753906 181.414062 C 87.765625 181.347656 87.765625 181.34375 87.820312 181.332031 C 87.847656 181.328125 87.894531 181.308594 87.917969 181.292969 C 87.953125 181.265625 87.960938 181.265625 87.972656 181.28125 C 87.984375 181.300781 87.988281 181.300781 88.007812 181.285156 C 88.023438 181.273438 88.039062 181.269531 88.042969 181.273438 C 88.046875 181.277344 88.0625 181.269531 88.074219 181.253906 C 88.085938 181.234375 88.109375 181.222656 88.128906 181.222656 C 88.148438 181.222656 88.167969 181.214844 88.179688 181.207031 C 88.191406 181.191406 88.203125 181.199219 88.214844 181.226562 C 88.226562 181.25 88.238281 181.269531 88.246094 181.269531 C 88.257812 181.269531 88.253906 181.257812 88.246094 181.25 C 88.230469 181.226562 88.238281 181.164062 88.257812 181.164062 C 88.265625 181.164062 88.296875 181.140625 88.328125 181.117188 C 88.371094 181.082031 88.386719 181.074219 88.40625 181.089844 C 88.417969 181.097656 88.421875 181.117188 88.417969 181.128906 C 88.410156 181.152344 88.433594 181.152344 88.449219 181.128906 C 88.453125 181.121094 88.453125 181.109375 88.441406 181.105469 C 88.414062 181.097656 88.421875 181.078125 88.472656 181.003906 C 88.519531 180.933594 88.546875 180.925781 88.535156 180.988281 C 88.53125 181.007812 88.53125 181.027344 88.535156 181.027344 C 88.554688 181.027344 88.59375 180.925781 88.59375 180.886719 C 88.589844 180.863281 88.601562 180.839844 88.621094 180.828125 C 88.636719 180.816406 88.644531 180.800781 88.640625 180.796875 C 88.636719 180.789062 88.636719 180.785156 88.648438 180.785156 C 88.664062 180.785156 88.664062 180.777344 88.648438 180.753906 C 88.640625 180.738281 88.636719 180.707031 88.636719 180.683594 C 88.644531 180.632812 88.6875 180.621094 88.703125 180.664062 C 88.714844 180.703125 88.742188 180.703125 88.75 180.664062 C 88.757812 180.648438 88.765625 180.632812 88.773438 180.632812 C 88.78125 180.632812 88.785156 180.625 88.785156 180.613281 C 88.785156 180.605469 88.800781 180.59375 88.820312 180.597656 C 88.886719 180.597656 88.917969 180.433594 88.867188 180.375 C 88.839844 180.34375 88.839844 180.34375 88.871094 180.351562 C 88.894531 180.355469 88.90625 180.355469 88.90625 180.34375 C 88.90625 180.332031 88.921875 180.316406 88.9375 180.304688 C 88.953125 180.296875 88.964844 180.28125 88.960938 180.277344 C 88.949219 180.257812 88.976562 180.222656 88.996094 180.234375 C 89.019531 180.25 89.015625 180.289062 88.992188 180.289062 C 88.984375 180.289062 88.992188 180.296875 89.011719 180.304688 C 89.03125 180.3125 89.054688 180.34375 89.066406 180.378906 C 89.082031 180.410156 89.097656 180.4375 89.109375 180.433594 C 89.136719 180.429688 89.195312 180.605469 89.21875 180.773438 C 89.230469 180.878906 89.253906 180.972656 89.273438 181.019531 C 89.304688 181.082031 89.308594 181.109375 89.300781 181.152344 C 89.285156 181.214844 89.246094 181.28125 89.226562 181.28125 C 89.203125 181.28125 89.179688 181.246094 89.167969 181.195312 C 89.15625 181.136719 89.132812 181.121094 89.109375 181.152344 C 89.085938 181.183594 89.097656 181.289062 89.128906 181.34375 C 89.148438 181.378906 89.148438 181.394531 89.132812 181.429688 C 89.125 181.453125 89.117188 181.480469 89.121094 181.488281 C 89.121094 181.496094 89.105469 181.519531 89.082031 181.542969 C 89.042969 181.582031 89.042969 181.589844 89.042969 181.722656 C 89.042969 181.851562 89.035156 181.878906 88.972656 182.058594 C 88.933594 182.167969 88.875 182.355469 88.835938 182.472656 C 88.796875 182.59375 88.742188 182.761719 88.710938 182.84375 C 88.675781 182.929688 88.632812 183.082031 88.613281 183.183594 C 88.589844 183.285156 88.550781 183.425781 88.523438 183.492188 C 88.492188 183.558594 88.46875 183.628906 88.460938 183.652344 C 88.453125 183.691406 88.386719 183.769531 88.367188 183.769531 C 88.308594 183.773438 88.140625 183.824219 88.089844 183.851562 C 88.003906 183.902344 87.941406 183.902344 87.882812 183.855469 Z M 85.457031 182.804688 C 85.457031 182.785156 85.460938 182.777344 85.464844 182.785156 C 85.46875 182.796875 85.46875 182.8125 85.464844 182.824219 C 85.460938 182.835938 85.457031 182.828125 85.457031 182.804688 Z M 90.566406 182.710938 C 90.484375 182.667969 90.488281 182.59375 90.570312 182.582031 C 90.617188 182.578125 90.683594 182.660156 90.660156 182.699219 C 90.640625 182.730469 90.609375 182.734375 90.566406 182.710938 Z M 91.0625 182.492188 C 91.046875 182.480469 91.046875 182.46875 91.0625 182.429688 C 91.089844 182.359375 91.121094 182.339844 91.148438 182.375 C 91.175781 182.414062 91.171875 182.4375 91.136719 182.472656 C 91.105469 182.507812 91.09375 182.507812 91.0625 182.492188 Z M 89.132812 181.554688 C 89.132812 181.539062 89.144531 181.515625 89.15625 181.5 C 89.183594 181.464844 89.183594 181.488281 89.15625 181.539062 C 89.140625 181.5625 89.132812 181.570312 89.132812 181.554688 Z M 79.394531 181.441406 C 79.394531 181.421875 79.398438 181.417969 79.402344 181.429688 C 79.40625 181.441406 79.40625 181.453125 79.402344 181.460938 C 79.398438 181.464844 79.394531 181.457031 79.394531 181.441406 Z M 88.710938 180.582031 C 88.710938 180.570312 88.722656 180.558594 88.734375 180.558594 C 88.746094 180.558594 88.757812 180.570312 88.757812 180.582031 C 88.757812 180.59375 88.746094 180.605469 88.734375 180.605469 C 88.722656 180.605469 88.710938 180.59375 88.710938 180.582031 Z M 87.925781 180.5 C 87.910156 180.421875 87.910156 180.40625 87.929688 180.410156 C 87.957031 180.421875 87.964844 180.46875 87.941406 180.488281 C 87.933594 180.496094 87.925781 180.5 87.925781 180.5 Z M 87.550781 180.316406 C 87.550781 180.308594 87.558594 180.304688 87.570312 180.304688 C 87.582031 180.304688 87.597656 180.308594 87.601562 180.316406 C 87.609375 180.328125 87.597656 180.332031 87.582031 180.332031 C 87.5625 180.332031 87.550781 180.328125 87.550781 180.316406 Z M 87.734375 180.304688 L 87.695312 180.277344 L 87.730469 180.269531 C 87.773438 180.257812 87.78125 180.261719 87.773438 180.300781 C 87.769531 180.332031 87.769531 180.332031 87.734375 180.304688 Z M 87.472656 180.203125 C 87.441406 180.171875 87.433594 180.097656 87.457031 180.085938 C 87.484375 180.070312 87.507812 180.121094 87.5 180.175781 C 87.496094 180.230469 87.496094 180.230469 87.472656 180.203125 Z M 86.546875 179.21875 C 86.550781 179.210938 86.546875 179.203125 86.535156 179.199219 C 86.523438 179.195312 86.53125 179.175781 86.558594 179.148438 C 86.582031 179.125 86.601562 179.113281 86.601562 179.121094 C 86.601562 179.148438 86.5625 179.234375 86.550781 179.234375 C 86.542969 179.234375 86.542969 179.226562 86.546875 179.21875 Z M 86.453125 178.78125 C 86.425781 178.761719 86.417969 178.746094 86.421875 178.699219 C 86.429688 178.621094 86.457031 178.613281 86.472656 178.679688 C 86.476562 178.710938 86.488281 178.734375 86.496094 178.734375 C 86.503906 178.734375 86.507812 178.753906 86.507812 178.773438 C 86.507812 178.816406 86.5 178.820312 86.453125 178.78125 Z M 86.535156 178.496094 C 86.546875 178.414062 86.546875 178.410156 86.570312 178.425781 C 86.597656 178.441406 86.589844 178.535156 86.554688 178.554688 C 86.527344 178.570312 86.527344 178.566406 86.535156 178.496094 Z M 78.582031 176.359375 C 78.5625 176.347656 78.558594 176.292969 78.578125 176.292969 C 78.585938 176.292969 78.597656 176.28125 78.601562 176.265625 C 78.605469 176.25 78.628906 176.230469 78.648438 176.21875 C 78.699219 176.195312 78.714844 176.234375 78.675781 176.296875 C 78.640625 176.363281 78.621094 176.375 78.582031 176.359375 Z M 72.273438 174.328125 C 72.261719 174.292969 72.277344 174.265625 72.289062 174.296875 C 72.296875 174.324219 72.351562 174.324219 72.351562 174.300781 C 72.351562 174.289062 72.355469 174.285156 72.359375 174.289062 C 72.378906 174.308594 72.34375 174.355469 72.3125 174.359375 C 72.289062 174.359375 72.277344 174.351562 72.273438 174.328125 Z M 72.382812 174.3125 C 72.382812 174.296875 72.390625 174.289062 72.398438 174.289062 C 72.40625 174.289062 72.414062 174.292969 72.414062 174.300781 C 72.414062 174.308594 72.40625 174.320312 72.398438 174.324219 C 72.390625 174.332031 72.382812 174.324219 72.382812 174.3125 Z M 72.242188 174.242188 C 72.222656 174.234375 72.21875 174.230469 72.230469 174.222656 C 72.238281 174.214844 72.257812 174.214844 72.273438 174.222656 C 72.304688 174.242188 72.277344 174.257812 72.242188 174.242188 Z M 72.3125 174.238281 C 72.320312 174.210938 72.351562 174.207031 72.351562 174.234375 C 72.351562 174.246094 72.34375 174.257812 72.328125 174.257812 C 72.316406 174.257812 72.308594 174.25 72.3125 174.238281 Z M 70.15625 173.339844 C 70.15625 173.328125 70.167969 173.316406 70.183594 173.316406 C 70.195312 173.316406 70.207031 173.328125 70.207031 173.339844 C 70.210938 173.359375 70.203125 173.367188 70.183594 173.367188 C 70.160156 173.367188 70.152344 173.359375 70.15625 173.339844 Z M 70.355469 173.328125 C 70.332031 173.304688 70.324219 173.261719 70.34375 173.242188 C 70.359375 173.226562 70.421875 173.292969 70.421875 173.324219 C 70.421875 173.359375 70.386719 173.359375 70.355469 173.328125 Z M 70.484375 173.261719 C 70.484375 173.246094 70.488281 173.230469 70.5 173.230469 C 70.507812 173.230469 70.511719 173.246094 70.511719 173.261719 C 70.511719 173.277344 70.507812 173.292969 70.5 173.292969 C 70.488281 173.292969 70.484375 173.277344 70.484375 173.261719 Z M 86.628906 173.15625 C 86.605469 173.132812 86.601562 173.121094 86.613281 173.105469 C 86.628906 173.09375 86.636719 173.09375 86.652344 173.113281 C 86.664062 173.128906 86.683594 173.140625 86.695312 173.140625 C 86.710938 173.140625 86.71875 173.148438 86.71875 173.160156 C 86.707031 173.191406 86.664062 173.191406 86.628906 173.15625 Z M 70.558594 173.027344 C 70.558594 172.988281 70.585938 172.980469 70.613281 173.007812 C 70.636719 173.03125 70.621094 173.066406 70.585938 173.066406 C 70.566406 173.066406 70.558594 173.054688 70.558594 173.027344 Z M 86.628906 173.050781 C 86.628906 173.042969 86.636719 173.035156 86.644531 173.035156 C 86.652344 173.035156 86.660156 173.042969 86.660156 173.050781 C 86.660156 173.058594 86.652344 173.066406 86.644531 173.066406 C 86.636719 173.066406 86.628906 173.058594 86.628906 173.050781 Z M 70.191406 172.917969 C 70.183594 172.914062 70.183594 172.90625 70.183594 172.898438 C 70.183594 172.882812 70.253906 172.882812 70.261719 172.898438 C 70.273438 172.914062 70.203125 172.929688 70.191406 172.917969 Z M 70.550781 172.878906 C 70.546875 172.867188 70.542969 172.847656 70.550781 172.84375 C 70.566406 172.828125 70.578125 172.851562 70.570312 172.878906 C 70.5625 172.90625 70.5625 172.90625 70.550781 172.878906 Z M 70.019531 172.839844 C 70.023438 172.828125 70.03125 172.824219 70.039062 172.824219 C 70.046875 172.824219 70.054688 172.828125 70.058594 172.839844 C 70.0625 172.847656 70.050781 172.855469 70.039062 172.855469 C 70.023438 172.855469 70.015625 172.847656 70.019531 172.839844 Z M 69.941406 172.796875 C 69.941406 172.777344 69.976562 172.75 70.003906 172.75 C 70.039062 172.75 70.039062 172.789062 70.007812 172.800781 C 69.972656 172.8125 69.941406 172.8125 69.941406 172.796875 Z M 84.578125 168.777344 C 84.550781 168.742188 84.570312 168.734375 84.601562 168.769531 C 84.617188 168.785156 84.621094 168.800781 84.613281 168.800781 C 84.605469 168.800781 84.589844 168.789062 84.578125 168.777344 Z M 79.160156 168.078125 C 79.128906 168.042969 79.140625 168.015625 79.179688 168.015625 C 79.226562 168.015625 79.246094 168.050781 79.214844 168.082031 C 79.1875 168.105469 79.1875 168.105469 79.160156 168.078125 Z M 79.210938 167.789062 C 79.210938 167.78125 79.222656 167.773438 79.238281 167.769531 C 79.253906 167.761719 79.277344 167.753906 79.289062 167.75 C 79.308594 167.742188 79.308594 167.742188 79.292969 167.761719 C 79.269531 167.789062 79.210938 167.808594 79.210938 167.789062 Z M 79.210938 167.789062 " fill-opacity="1" fill-rule="nonzero"/></g><g fill="#81a969" fill-opacity="0.4"><g transform="translate(193.931065, 203.624327)"><g><path d="M 15.453125 -31.90625 L 15.453125 0 L 3.734375 0 L 3.734375 -51.421875 L 15.453125 -51.421875 L 35.90625 -19.515625 L 36.03125 -19.515625 L 36.03125 -51.421875 L 47.75 -51.421875 L 47.75 0 L 36.03125 0 L 15.578125 -31.90625 Z M 15.453125 -31.90625 "/></g></g></g><g fill="#81a969" fill-opacity="0.4"><g transform="translate(242.104165, 203.624327)"><g><path d="M 36.09375 -14.453125 L 12.90625 -14.453125 C 12.90625 -12.210938 13.628906 -10.550781 15.078125 -9.46875 C 16.535156 -8.394531 18.117188 -7.859375 19.828125 -7.859375 C 21.609375 -7.859375 23.015625 -8.09375 24.046875 -8.5625 C 25.085938 -9.039062 26.273438 -9.988281 27.609375 -11.40625 L 35.59375 -7.421875 C 32.269531 -1.847656 26.742188 0.9375 19.015625 0.9375 C 14.191406 0.9375 10.054688 -0.710938 6.609375 -4.015625 C 3.160156 -7.316406 1.4375 -11.296875 1.4375 -15.953125 C 1.4375 -20.609375 3.160156 -24.597656 6.609375 -27.921875 C 10.054688 -31.242188 14.191406 -32.90625 19.015625 -32.90625 C 24.078125 -32.90625 28.195312 -31.441406 31.375 -28.515625 C 34.5625 -25.585938 36.15625 -21.398438 36.15625 -15.953125 C 36.15625 -15.203125 36.132812 -14.703125 36.09375 -14.453125 Z M 13.21875 -20.5625 L 25.375 -20.5625 C 25.125 -22.226562 24.46875 -23.503906 23.40625 -24.390625 C 22.34375 -25.285156 20.984375 -25.734375 19.328125 -25.734375 C 17.492188 -25.734375 16.035156 -25.253906 14.953125 -24.296875 C 13.878906 -23.347656 13.300781 -22.101562 13.21875 -20.5625 Z M 13.21875 -20.5625 "/></g></g></g><g fill="#81a969" fill-opacity="0.4"><g transform="translate(276.379859, 203.624327)"><g><path d="M 40.765625 0 L 27.421875 0 L 20.375 -9.03125 L 13.34375 0 L 0 0 L 13.65625 -16.703125 L 1.9375 -31.96875 L 14.828125 -31.96875 L 20.375 -24.5625 L 25.921875 -31.96875 L 38.828125 -31.96875 L 27.109375 -16.703125 Z M 40.765625 0 "/></g></g></g><g fill="#231f20" fill-opacity="1"><g transform="translate(193.931065, 203.624327)"><g><path d="M 15.453125 -31.90625 L 15.453125 0 L 3.734375 0 L 3.734375 -51.421875 L 15.453125 -51.421875 L 35.90625 -19.515625 L 36.03125 -19.515625 L 36.03125 -51.421875 L 47.75 -51.421875 L 47.75 0 L 36.03125 0 L 15.578125 -31.90625 Z M 15.453125 -31.90625 "/></g></g></g><g fill="#231f20" fill-opacity="1"><g transform="translate(242.104165, 203.624327)"><g><path d="M 36.09375 -14.453125 L 12.90625 -14.453125 C 12.90625 -12.210938 13.628906 -10.550781 15.078125 -9.46875 C 16.535156 -8.394531 18.117188 -7.859375 19.828125 -7.859375 C 21.609375 -7.859375 23.015625 -8.09375 24.046875 -8.5625 C 25.085938 -9.039062 26.273438 -9.988281 27.609375 -11.40625 L 35.59375 -7.421875 C 32.269531 -1.847656 26.742188 0.9375 19.015625 0.9375 C 14.191406 0.9375 10.054688 -0.710938 6.609375 -4.015625 C 3.160156 -7.316406 1.4375 -11.296875 1.4375 -15.953125 C 1.4375 -20.609375 3.160156 -24.597656 6.609375 -27.921875 C 10.054688 -31.242188 14.191406 -32.90625 19.015625 -32.90625 C 24.078125 -32.90625 28.195312 -31.441406 31.375 -28.515625 C 34.5625 -25.585938 36.15625 -21.398438 36.15625 -15.953125 C 36.15625 -15.203125 36.132812 -14.703125 36.09375 -14.453125 Z M 13.21875 -20.5625 L 25.375 -20.5625 C 25.125 -22.226562 24.46875 -23.503906 23.40625 -24.390625 C 22.34375 -25.285156 20.984375 -25.734375 19.328125 -25.734375 C 17.492188 -25.734375 16.035156 -25.253906 14.953125 -24.296875 C 13.878906 -23.347656 13.300781 -22.101562 13.21875 -20.5625 Z M 13.21875 -20.5625 "/></g></g></g><g fill="#231f20" fill-opacity="1"><g transform="translate(276.379859, 203.624327)"><g><path d="M 40.765625 0 L 27.421875 0 L 20.375 -9.03125 L 13.34375 0 L 0 0 L 13.65625 -16.703125 L 1.9375 -31.96875 L 14.828125 -31.96875 L 20.375 -24.5625 L 25.921875 -31.96875 L 38.828125 -31.96875 L 27.109375 -16.703125 Z M 40.765625 0 "/></g></g></g><g fill="#81a969" fill-opacity="0.4"><g transform="translate(313.837307, 203.624327)"><g/></g></g><g fill="#81a969" fill-opacity="0.4"><g transform="translate(327.547328, 203.624327)"><g/></g></g><g fill="#231f20" fill-opacity="1"><g transform="translate(313.837307, 203.624327)"><g/></g></g><g fill="#231f20" fill-opacity="1"><g transform="translate(327.547328, 203.624327)"><g/></g></g><g fill="#231f20" fill-opacity="1"><g transform="translate(158.838524, 222.637397)"><g><path d="M 1 0 L 1 -6.84375 L 5.15625 -6.84375 L 5.15625 -6.046875 L 1.859375 -6.046875 L 1.859375 -3.890625 L 4.90625 -3.890625 L 4.90625 -3.09375 L 1.859375 -3.09375 L 1.859375 -0.796875 L 5.265625 -0.796875 L 5.265625 0 Z M 1 0 "/></g></g></g><g fill="#231f20" fill-opacity="1"><g transform="translate(167.423332, 222.637397)"><g><path d="M 1 0 L 1 -6.84375 L 1.8125 -6.84375 L 5.59375 -1.484375 L 5.59375 -6.84375 L 6.4375 -6.84375 L 6.4375 0 L 5.640625 0 L 1.84375 -5.359375 L 1.84375 0 Z M 1 0 "/></g></g></g><g fill="#231f20" fill-opacity="1"><g transform="translate(177.542575, 222.637397)"><g><path d="M 1 0 L 1 -6.84375 L 5.15625 -6.84375 L 5.15625 -6.046875 L 1.859375 -6.046875 L 1.859375 -3.890625 L 4.90625 -3.890625 L 4.90625 -3.09375 L 1.859375 -3.09375 L 1.859375 -0.796875 L 5.265625 -0.796875 L 5.265625 0 Z M 1 0 "/></g></g></g><g fill="#231f20" fill-opacity="1"><g transform="translate(186.127383, 222.637397)"><g><path d="M 1 0 L 1 -6.84375 L 3.609375 -6.84375 C 4.085938 -6.84375 4.5 -6.753906 4.84375 -6.578125 C 5.195312 -6.398438 5.472656 -6.144531 5.671875 -5.8125 C 5.867188 -5.488281 5.96875 -5.097656 5.96875 -4.640625 C 5.96875 -4.085938 5.820312 -3.628906 5.53125 -3.265625 C 5.25 -2.910156 4.859375 -2.671875 4.359375 -2.546875 L 6.078125 0 L 5.03125 0 L 3.359375 -2.453125 L 1.859375 -2.453125 L 1.859375 0 Z M 1.859375 -3.28125 L 3.515625 -3.28125 C 4.015625 -3.28125 4.398438 -3.394531 4.671875 -3.625 C 4.953125 -3.863281 5.09375 -4.203125 5.09375 -4.640625 C 5.09375 -5.078125 4.953125 -5.414062 4.671875 -5.65625 C 4.398438 -5.90625 4.015625 -6.03125 3.515625 -6.03125 L 1.859375 -6.03125 Z M 1.859375 -3.28125 "/></g></g></g><g fill="#231f20" fill-opacity="1"><g transform="translate(195.474527, 222.637397)"><g><path d="M 4.046875 0.125 C 3.546875 0.125 3.082031 0.0351562 2.65625 -0.140625 C 2.238281 -0.316406 1.867188 -0.5625 1.546875 -0.875 C 1.234375 -1.1875 0.988281 -1.5625 0.8125 -2 C 0.644531 -2.4375 0.5625 -2.910156 0.5625 -3.421875 C 0.5625 -3.941406 0.644531 -4.414062 0.8125 -4.84375 C 0.988281 -5.269531 1.234375 -5.644531 1.546875 -5.96875 C 1.859375 -6.289062 2.222656 -6.535156 2.640625 -6.703125 C 3.066406 -6.878906 3.53125 -6.96875 4.03125 -6.96875 C 4.550781 -6.96875 5.03125 -6.875 5.46875 -6.6875 C 5.914062 -6.5 6.300781 -6.234375 6.625 -5.890625 C 6.945312 -5.554688 7.179688 -5.164062 7.328125 -4.71875 L 6.390625 -4.71875 C 6.171875 -5.15625 5.859375 -5.492188 5.453125 -5.734375 C 5.046875 -5.984375 4.582031 -6.109375 4.0625 -6.109375 C 3.550781 -6.109375 3.097656 -5.992188 2.703125 -5.765625 C 2.304688 -5.535156 2 -5.21875 1.78125 -4.8125 C 1.5625 -4.414062 1.453125 -3.953125 1.453125 -3.421875 C 1.453125 -2.890625 1.5625 -2.421875 1.78125 -2.015625 C 2.007812 -1.617188 2.320312 -1.304688 2.71875 -1.078125 C 3.113281 -0.847656 3.5625 -0.734375 4.0625 -0.734375 C 4.53125 -0.734375 4.941406 -0.820312 5.296875 -1 C 5.660156 -1.1875 5.953125 -1.441406 6.171875 -1.765625 C 6.398438 -2.085938 6.546875 -2.460938 6.609375 -2.890625 L 3.8125 -2.890625 L 3.8125 -3.71875 L 7.53125 -3.71875 C 7.539062 -2.96875 7.398438 -2.300781 7.109375 -1.71875 C 6.828125 -1.144531 6.421875 -0.691406 5.890625 -0.359375 C 5.367188 -0.0351562 4.753906 0.125 4.046875 0.125 Z M 4.046875 0.125 "/></g></g></g><g fill="#231f20" fill-opacity="1"><g transform="translate(206.229043, 222.637397)"><g><path d="M 2.734375 0 L 2.734375 -2.46875 L 0.171875 -6.84375 L 1.15625 -6.84375 L 2.28125 -4.9375 L 3.171875 -3.390625 L 5.1875 -6.84375 L 6.15625 -6.84375 L 3.578125 -2.46875 L 3.578125 0 Z M 2.734375 0 "/></g></g></g></svg>