<svg xmlns="http://www.w3.org/2000/svg" xmlns:xlink="http://www.w3.org/1999/xlink" width="408" zoomAndPan="magnify" viewBox="0 0 306 121.500001" height="162" preserveAspectRatio="xMidYMid meet" version="1.0"><defs><g/><clipPath id="aaad133976"><path d="M 132 41 L 159.738281 41 L 159.738281 77.4375 L 132 77.4375 Z M 132 41 " clip-rule="nonzero"/></clipPath><clipPath id="3fe8579e9a"><path d="M 119 29.636719 L 150 29.636719 L 150 76 L 119 76 Z M 119 29.636719 " clip-rule="nonzero"/></clipPath><clipPath id="28f9d6d2b9"><path d="M 34.015625 38.804688 L 58.433594 38.804688 L 58.433594 60.140625 L 34.015625 60.140625 Z M 34.015625 38.804688 " clip-rule="nonzero"/></clipPath><clipPath id="5cf0859228"><path d="M 46.207031 38.804688 L 58.398438 60.140625 L 34.015625 60.140625 Z M 46.207031 38.804688 " clip-rule="nonzero"/></clipPath><clipPath id="10e6e0153e"><path d="M 0.015625 0.804688 L 24.433594 0.804688 L 24.433594 22.140625 L 0.015625 22.140625 Z M 0.015625 0.804688 " clip-rule="nonzero"/></clipPath><clipPath id="6583176ea9"><path d="M 12.207031 0.804688 L 24.398438 22.140625 L 0.015625 22.140625 Z M 12.207031 0.804688 " clip-rule="nonzero"/></clipPath><clipPath id="78573fa77b"><rect x="0" width="25" y="0" height="23"/></clipPath><clipPath id="a8040abf84"><path d="M 35.628906 39.648438 L 56.542969 39.648438 L 56.542969 59.066406 L 35.628906 59.066406 Z M 35.628906 39.648438 " clip-rule="nonzero"/></clipPath></defs><g fill="#81a969" fill-opacity="0.4"><g transform="translate(21.887077, 76.200667)"><g><path d="M 29.734375 -51.203125 L 50.390625 0 L 37.859375 0 L 34.078125 -10.234375 L 14.578125 -10.234375 L 10.796875 0 L -1.734375 0 L 18.921875 -51.203125 Z M 30.09375 -20.484375 L 24.390625 -35.375 L 24.265625 -35.375 L 18.5625 -20.484375 Z M 30.09375 -20.484375 "/></g></g></g><g fill="#81a969" fill-opacity="0.4"><g transform="translate(67.256028, 76.200667)"><g><path d="M 5.578125 -31.84375 L 5.578125 -38.609375 C 5.617188 -43.359375 6.734375 -47.160156 8.921875 -50.015625 C 11.117188 -52.878906 14.164062 -54.3125 18.0625 -54.3125 C 19.71875 -54.3125 21.300781 -54.070312 22.8125 -53.59375 C 24.320312 -53.113281 25.40625 -52.625 26.0625 -52.125 L 27.125 -51.453125 L 23.28125 -43.6875 C 22.28125 -44.269531 21.179688 -44.5625 19.984375 -44.5625 C 18.617188 -44.5625 17.707031 -44.09375 17.25 -43.15625 C 16.800781 -42.226562 16.578125 -40.609375 16.578125 -38.296875 L 16.578125 -31.84375 L 23.890625 -31.84375 L 23.890625 -23.453125 L 16.578125 -23.453125 L 16.578125 0 L 5.578125 0 L 5.578125 -23.453125 L 1 -23.453125 L 1 -31.84375 Z M 5.578125 -31.84375 "/></g></g></g><g fill="#81a969" fill-opacity="0.4"><g transform="translate(87.240464, 76.200667)"><g><path d="M 3.71875 0 L 3.71875 -31.84375 L 14.703125 -31.84375 L 14.703125 -27.25 L 14.828125 -27.25 C 14.910156 -27.414062 15.046875 -27.617188 15.234375 -27.859375 C 15.421875 -28.109375 15.820312 -28.539062 16.4375 -29.15625 C 17.0625 -29.78125 17.722656 -30.34375 18.421875 -30.84375 C 19.128906 -31.34375 20.039062 -31.785156 21.15625 -32.171875 C 22.28125 -32.566406 23.421875 -32.765625 24.578125 -32.765625 C 25.773438 -32.765625 26.953125 -32.597656 28.109375 -32.265625 C 29.273438 -31.941406 30.125 -31.613281 30.65625 -31.28125 L 31.53125 -30.78125 L 26.9375 -21.46875 C 25.570312 -22.632812 23.664062 -23.21875 21.21875 -23.21875 C 19.894531 -23.21875 18.757812 -22.925781 17.8125 -22.34375 C 16.863281 -21.757812 16.191406 -21.050781 15.796875 -20.21875 C 15.398438 -19.394531 15.117188 -18.691406 14.953125 -18.109375 C 14.785156 -17.535156 14.703125 -17.082031 14.703125 -16.75 L 14.703125 0 Z M 3.71875 0 "/></g></g></g><g fill="#231f20" fill-opacity="1"><g transform="translate(21.887077, 76.200667)"><g><path d="M 29.734375 -51.203125 L 50.390625 0 L 37.859375 0 L 34.078125 -10.234375 L 14.578125 -10.234375 L 10.796875 0 L -1.734375 0 L 18.921875 -51.203125 Z M 30.09375 -20.484375 L 24.390625 -35.375 L 24.265625 -35.375 L 18.5625 -20.484375 Z M 30.09375 -20.484375 "/></g></g></g><g fill="#231f20" fill-opacity="1"><g transform="translate(67.256028, 76.200667)"><g><path d="M 5.578125 -31.84375 L 5.578125 -38.609375 C 5.617188 -43.359375 6.734375 -47.160156 8.921875 -50.015625 C 11.117188 -52.878906 14.164062 -54.3125 18.0625 -54.3125 C 19.71875 -54.3125 21.300781 -54.070312 22.8125 -53.59375 C 24.320312 -53.113281 25.40625 -52.625 26.0625 -52.125 L 27.125 -51.453125 L 23.28125 -43.6875 C 22.28125 -44.269531 21.179688 -44.5625 19.984375 -44.5625 C 18.617188 -44.5625 17.707031 -44.09375 17.25 -43.15625 C 16.800781 -42.226562 16.578125 -40.609375 16.578125 -38.296875 L 16.578125 -31.84375 L 23.890625 -31.84375 L 23.890625 -23.453125 L 16.578125 -23.453125 L 16.578125 0 L 5.578125 0 L 5.578125 -23.453125 L 1 -23.453125 L 1 -31.84375 Z M 5.578125 -31.84375 "/></g></g></g><g fill="#231f20" fill-opacity="1"><g transform="translate(87.240464, 76.200667)"><g><path d="M 3.71875 0 L 3.71875 -31.84375 L 14.703125 -31.84375 L 14.703125 -27.25 L 14.828125 -27.25 C 14.910156 -27.414062 15.046875 -27.617188 15.234375 -27.859375 C 15.421875 -28.109375 15.820312 -28.539062 16.4375 -29.15625 C 17.0625 -29.78125 17.722656 -30.34375 18.421875 -30.84375 C 19.128906 -31.34375 20.039062 -31.785156 21.15625 -32.171875 C 22.28125 -32.566406 23.421875 -32.765625 24.578125 -32.765625 C 25.773438 -32.765625 26.953125 -32.597656 28.109375 -32.265625 C 29.273438 -31.941406 30.125 -31.613281 30.65625 -31.28125 L 31.53125 -30.78125 L 26.9375 -21.46875 C 25.570312 -22.632812 23.664062 -23.21875 21.21875 -23.21875 C 19.894531 -23.21875 18.757812 -22.925781 17.8125 -22.34375 C 16.863281 -21.757812 16.191406 -21.050781 15.796875 -20.21875 C 15.398438 -19.394531 15.117188 -18.691406 14.953125 -18.109375 C 14.785156 -17.535156 14.703125 -17.082031 14.703125 -16.75 L 14.703125 0 Z M 3.71875 0 "/></g></g></g><g fill="#81a969" fill-opacity="0.4"><g transform="translate(114.867719, 76.200667)"><g/></g></g><g fill="#81a969" fill-opacity="0.4"><g transform="translate(128.521551, 76.200667)"><g/></g></g><g fill="#81a969" fill-opacity="0.4"><g transform="translate(142.175384, 76.200667)"><g/></g></g><g fill="#231f20" fill-opacity="1"><g transform="translate(114.867719, 76.200667)"><g/></g></g><g fill="#231f20" fill-opacity="1"><g transform="translate(128.521551, 76.200667)"><g/></g></g><g fill="#231f20" fill-opacity="1"><g transform="translate(142.175384, 76.200667)"><g/></g></g><g clip-path="url(#aaad133976)"><path fill="#231f20" d="M 159.984375 58.152344 C 159.984375 68.636719 151.484375 77.136719 140.996094 77.136719 C 140.042969 77.136719 139.101562 77.066406 138.183594 76.929688 C 137.234375 76.316406 136.265625 75.558594 135.421875 74.640625 C 134.164062 73.140625 133.148438 71.5625 132.355469 69.964844 C 134.777344 71.742188 137.765625 72.789062 140.996094 72.789062 C 149.082031 72.789062 155.636719 66.234375 155.636719 58.152344 C 155.636719 52.558594 152.5 47.699219 147.886719 45.234375 C 148.910156 44.292969 149.703125 43.1875 150.261719 41.917969 C 150.300781 41.828125 150.339844 41.734375 150.375 41.644531 C 156.113281 44.90625 159.984375 51.078125 159.984375 58.152344 Z M 159.984375 58.152344 " fill-opacity="1" fill-rule="nonzero"/></g><g clip-path="url(#3fe8579e9a)"><path fill="#88c932" d="M 134.023438 75.8125 C 127.746094 68.339844 127.105469 59.011719 129.710938 53.648438 C 131.90625 49.136719 137.183594 47.902344 142.359375 46.25 C 150.921875 43.515625 150.292969 35.761719 147.464844 29.636719 C 142.960938 37.988281 124.523438 34.488281 120.199219 50.839844 C 116.433594 65.082031 128.90625 72.789062 128.90625 72.789062 C 117.417969 58.671875 125.46875 42.175781 140.003906 39.769531 C 130.382812 44.074219 124.175781 50.492188 125.550781 61.214844 C 126.804688 71.035156 134.023438 75.8125 134.023438 75.8125 Z M 134.023438 75.8125 " fill-opacity="1" fill-rule="nonzero"/></g><g clip-path="url(#28f9d6d2b9)"><g clip-path="url(#5cf0859228)"><g transform="matrix(1, 0, 0, 1, 34, 38)"><g clip-path="url(#78573fa77b)"><g clip-path="url(#10e6e0153e)"><g clip-path="url(#6583176ea9)"><path fill="#231f20" d="M 0.015625 0.804688 L 24.433594 0.804688 L 24.433594 22.140625 L 0.015625 22.140625 Z M 0.015625 0.804688 " fill-opacity="1" fill-rule="nonzero"/></g></g></g></g></g></g><g clip-path="url(#a8040abf84)"><path fill="#ffffff" d="M 47.027344 59.214844 C 47.003906 59.199219 46.984375 59.175781 46.988281 59.164062 C 46.992188 59.15625 46.980469 59.144531 46.964844 59.136719 C 46.949219 59.132812 46.933594 59.121094 46.933594 59.117188 C 46.933594 59.109375 46.914062 59.109375 46.890625 59.109375 C 46.851562 59.117188 46.847656 59.113281 46.855469 59.078125 C 46.859375 59.050781 46.855469 59.039062 46.828125 59.03125 C 46.789062 59.019531 46.769531 59.035156 46.769531 59.070312 C 46.769531 59.089844 46.761719 59.097656 46.753906 59.09375 C 46.738281 59.082031 46.726562 58.996094 46.742188 58.984375 C 46.757812 58.972656 46.757812 58.894531 46.738281 58.882812 C 46.722656 58.871094 46.65625 58.753906 46.65625 58.734375 C 46.65625 58.726562 46.648438 58.71875 46.640625 58.710938 C 46.589844 58.679688 46.609375 58.59375 46.664062 58.613281 C 46.699219 58.621094 46.71875 58.59375 46.726562 58.511719 C 46.742188 58.410156 46.714844 58.332031 46.597656 58.140625 C 46.527344 58.027344 46.476562 57.921875 46.429688 57.789062 C 46.351562 57.566406 46.277344 57.425781 46.214844 57.386719 C 46.101562 57.316406 45.890625 56.941406 45.917969 56.847656 C 45.921875 56.832031 45.914062 56.800781 45.898438 56.78125 C 45.875 56.753906 45.867188 56.703125 45.855469 56.554688 C 45.84375 56.382812 45.835938 56.347656 45.796875 56.269531 C 45.753906 56.1875 45.75 56.164062 45.75 56.039062 C 45.75 55.964844 45.746094 55.878906 45.738281 55.847656 C 45.730469 55.808594 45.734375 55.796875 45.746094 55.800781 C 45.757812 55.808594 45.761719 55.796875 45.761719 55.757812 C 45.761719 55.695312 45.753906 55.683594 45.609375 55.449219 C 45.558594 55.375 45.460938 55.191406 45.386719 55.039062 C 45.316406 54.890625 45.222656 54.71875 45.179688 54.664062 C 45.070312 54.515625 45.054688 54.460938 45.0625 54.15625 C 45.066406 53.941406 45.070312 53.902344 45.09375 53.875 C 45.109375 53.859375 45.128906 53.808594 45.140625 53.765625 C 45.152344 53.722656 45.171875 53.648438 45.183594 53.605469 C 45.195312 53.558594 45.207031 53.507812 45.207031 53.488281 C 45.207031 53.472656 45.21875 53.4375 45.230469 53.414062 C 45.242188 53.390625 45.25 53.351562 45.25 53.332031 C 45.25 53.308594 45.269531 53.273438 45.285156 53.25 C 45.304688 53.226562 45.335938 53.175781 45.355469 53.144531 C 45.378906 53.101562 45.40625 53.074219 45.4375 53.0625 C 45.53125 53.03125 45.589844 52.890625 45.582031 52.710938 C 45.574219 52.597656 45.570312 52.582031 45.503906 52.46875 C 45.464844 52.402344 45.429688 52.324219 45.421875 52.296875 C 45.417969 52.269531 45.402344 52.222656 45.390625 52.195312 L 45.363281 52.148438 L 45.421875 52.09375 C 45.453125 52.066406 45.476562 52.03125 45.476562 52.023438 C 45.476562 52.011719 45.445312 51.941406 45.410156 51.863281 C 45.371094 51.785156 45.335938 51.695312 45.332031 51.667969 C 45.328125 51.640625 45.300781 51.585938 45.273438 51.550781 C 45.214844 51.476562 45.191406 51.410156 45.21875 51.398438 C 45.230469 51.394531 45.226562 51.378906 45.207031 51.351562 C 45.191406 51.328125 45.171875 51.28125 45.167969 51.25 C 45.164062 51.214844 45.140625 51.160156 45.121094 51.128906 C 45.101562 51.101562 45.078125 51.0625 45.074219 51.046875 C 45.058594 51.011719 44.867188 50.804688 44.640625 50.578125 C 44.484375 50.421875 44.46875 50.402344 44.382812 50.226562 C 44.332031 50.125 44.292969 50.03125 44.292969 50.015625 C 44.292969 49.996094 44.292969 49.996094 44.308594 50.019531 C 44.320312 50.042969 44.328125 50.042969 44.34375 50.03125 C 44.355469 50.019531 44.367188 50.019531 44.367188 50.023438 C 44.367188 50.03125 44.382812 50.007812 44.402344 49.96875 C 44.425781 49.925781 44.441406 49.875 44.441406 49.828125 C 44.441406 49.773438 44.445312 49.761719 44.457031 49.785156 C 44.464844 49.804688 44.484375 49.816406 44.527344 49.816406 L 44.582031 49.820312 L 44.535156 49.804688 C 44.460938 49.78125 44.410156 49.667969 44.484375 49.6875 C 44.503906 49.695312 44.507812 49.6875 44.503906 49.640625 C 44.5 49.613281 44.488281 49.582031 44.476562 49.574219 C 44.445312 49.558594 44.449219 49.539062 44.5 49.46875 C 44.535156 49.417969 44.546875 49.375 44.566406 49.222656 C 44.59375 49.039062 44.59375 49.035156 44.566406 49.003906 C 44.515625 48.949219 44.496094 48.90625 44.515625 48.882812 C 44.527344 48.867188 44.527344 48.859375 44.515625 48.851562 C 44.503906 48.84375 44.492188 48.847656 44.488281 48.855469 C 44.480469 48.878906 44.441406 48.878906 44.441406 48.859375 C 44.441406 48.851562 44.4375 48.84375 44.429688 48.847656 C 44.378906 48.855469 44.335938 48.8125 44.335938 48.753906 C 44.335938 48.710938 44.332031 48.707031 44.289062 48.71875 C 44.253906 48.726562 44.246094 48.722656 44.246094 48.699219 C 44.246094 48.683594 44.234375 48.664062 44.214844 48.652344 C 44.1875 48.636719 44.1875 48.636719 44.191406 48.667969 C 44.191406 48.699219 44.183594 48.703125 44.105469 48.710938 C 44.054688 48.71875 44.007812 48.71875 44 48.710938 C 43.992188 48.703125 43.96875 48.703125 43.953125 48.710938 C 43.925781 48.722656 43.925781 48.722656 43.960938 48.726562 C 43.992188 48.726562 43.988281 48.730469 43.945312 48.738281 C 43.914062 48.746094 43.886719 48.746094 43.875 48.738281 C 43.863281 48.726562 43.855469 48.730469 43.851562 48.738281 C 43.851562 48.75 43.804688 48.757812 43.753906 48.761719 C 43.703125 48.761719 43.65625 48.769531 43.652344 48.773438 C 43.636719 48.785156 43.539062 48.734375 43.507812 48.699219 C 43.476562 48.667969 43.449219 48.601562 43.441406 48.539062 C 43.4375 48.511719 43.421875 48.484375 43.414062 48.476562 C 43.402344 48.46875 43.371094 48.429688 43.347656 48.390625 C 43.277344 48.285156 43.195312 48.242188 43.0625 48.242188 C 42.964844 48.242188 42.925781 48.226562 42.972656 48.207031 C 42.984375 48.203125 42.980469 48.199219 42.964844 48.199219 C 42.953125 48.199219 42.941406 48.207031 42.941406 48.21875 C 42.941406 48.234375 42.898438 48.242188 42.769531 48.25 C 42.589844 48.257812 42.367188 48.304688 42.355469 48.335938 C 42.339844 48.386719 42.292969 48.410156 42.210938 48.410156 C 42.144531 48.410156 42.105469 48.421875 42.011719 48.46875 C 41.949219 48.5 41.875 48.527344 41.847656 48.535156 C 41.820312 48.539062 41.746094 48.566406 41.679688 48.597656 L 41.558594 48.652344 L 41.4375 48.613281 C 41.371094 48.59375 41.300781 48.574219 41.28125 48.574219 C 41.257812 48.574219 41.246094 48.566406 41.25 48.546875 C 41.25 48.535156 41.25 48.53125 41.246094 48.542969 C 41.242188 48.558594 41.222656 48.558594 41.164062 48.550781 C 41.0625 48.539062 41.070312 48.539062 40.851562 48.554688 C 40.660156 48.574219 40.535156 48.605469 40.28125 48.710938 C 40.140625 48.769531 40.117188 48.765625 39.921875 48.671875 C 39.777344 48.601562 39.722656 48.5625 39.574219 48.421875 C 39.527344 48.375 39.449219 48.320312 39.402344 48.296875 C 39.359375 48.277344 39.320312 48.253906 39.320312 48.246094 C 39.320312 48.238281 39.292969 48.222656 39.261719 48.207031 C 39.226562 48.191406 39.183594 48.160156 39.167969 48.136719 C 39.140625 48.105469 38.960938 48.003906 38.886719 47.980469 C 38.882812 47.980469 38.855469 47.96875 38.828125 47.957031 C 38.777344 47.9375 38.777344 47.9375 38.808594 47.921875 C 38.84375 47.902344 38.84375 47.902344 38.816406 47.882812 C 38.800781 47.871094 38.789062 47.84375 38.789062 47.824219 C 38.789062 47.796875 38.777344 47.785156 38.757812 47.78125 C 38.738281 47.777344 38.71875 47.761719 38.707031 47.738281 C 38.691406 47.707031 38.695312 47.703125 38.722656 47.703125 C 38.738281 47.703125 38.75 47.695312 38.75 47.675781 C 38.75 47.660156 38.746094 47.660156 38.742188 47.667969 C 38.726562 47.707031 38.703125 47.6875 38.707031 47.644531 C 38.710938 47.617188 38.710938 47.59375 38.703125 47.589844 C 38.695312 47.585938 38.691406 47.566406 38.691406 47.542969 C 38.691406 47.523438 38.683594 47.507812 38.675781 47.507812 C 38.667969 47.507812 38.660156 47.5 38.660156 47.492188 C 38.660156 47.46875 38.617188 47.429688 38.601562 47.441406 C 38.589844 47.445312 38.589844 47.4375 38.601562 47.410156 C 38.609375 47.382812 38.609375 47.375 38.601562 47.378906 C 38.59375 47.386719 38.585938 47.382812 38.585938 47.375 C 38.585938 47.363281 38.574219 47.359375 38.5625 47.359375 C 38.550781 47.359375 38.53125 47.347656 38.523438 47.332031 C 38.496094 47.300781 38.445312 47.269531 38.414062 47.269531 C 38.398438 47.269531 38.390625 47.257812 38.390625 47.246094 C 38.390625 47.234375 38.378906 47.214844 38.367188 47.199219 C 38.351562 47.1875 38.34375 47.171875 38.347656 47.167969 C 38.355469 47.164062 38.34375 47.148438 38.328125 47.128906 C 38.3125 47.113281 38.300781 47.089844 38.304688 47.078125 C 38.308594 47.066406 38.308594 47.058594 38.296875 47.058594 C 38.289062 47.058594 38.277344 47.070312 38.273438 47.085938 C 38.265625 47.125 38.238281 47.128906 38.238281 47.089844 C 38.238281 47.078125 38.21875 47.050781 38.195312 47.035156 C 38.167969 47.019531 38.152344 47 38.15625 46.988281 C 38.160156 46.980469 38.15625 46.96875 38.144531 46.964844 C 38.132812 46.960938 38.132812 46.949219 38.148438 46.929688 C 38.171875 46.90625 38.167969 46.902344 38.140625 46.914062 C 38.113281 46.921875 38.109375 46.917969 38.117188 46.882812 C 38.121094 46.863281 38.136719 46.839844 38.15625 46.832031 C 38.175781 46.824219 38.179688 46.820312 38.164062 46.820312 C 38.152344 46.816406 38.128906 46.828125 38.113281 46.839844 C 38.09375 46.851562 38.066406 46.863281 38.046875 46.863281 C 38.019531 46.863281 38.011719 46.855469 38.019531 46.835938 C 38.027344 46.8125 38.027344 46.8125 38.007812 46.839844 C 37.988281 46.863281 37.984375 46.863281 37.949219 46.824219 C 37.917969 46.792969 37.914062 46.777344 37.925781 46.765625 C 37.9375 46.75 37.933594 46.746094 37.914062 46.753906 C 37.894531 46.757812 37.867188 46.746094 37.839844 46.722656 C 37.796875 46.683594 37.796875 46.683594 37.828125 46.664062 C 37.84375 46.652344 37.867188 46.644531 37.878906 46.648438 C 37.898438 46.652344 37.898438 46.652344 37.882812 46.640625 C 37.871094 46.632812 37.847656 46.628906 37.835938 46.632812 C 37.8125 46.640625 37.808594 46.625 37.800781 46.550781 C 37.792969 46.457031 37.808594 46.40625 37.84375 46.417969 C 37.875 46.429688 37.871094 46.375 37.835938 46.339844 C 37.820312 46.328125 37.796875 46.285156 37.785156 46.246094 C 37.753906 46.164062 37.683594 46.089844 37.648438 46.101562 C 37.636719 46.105469 37.621094 46.105469 37.617188 46.097656 C 37.613281 46.089844 37.628906 46.078125 37.652344 46.070312 C 37.703125 46.050781 37.792969 45.964844 37.828125 45.898438 C 37.84375 45.871094 37.863281 45.785156 37.875 45.710938 C 37.886719 45.632812 37.910156 45.53125 37.933594 45.476562 C 38.011719 45.296875 37.992188 45.007812 37.898438 44.90625 C 37.875 44.882812 37.867188 44.867188 37.878906 44.867188 C 37.886719 44.867188 37.894531 44.847656 37.890625 44.816406 C 37.886719 44.757812 37.90625 44.71875 37.925781 44.746094 C 37.929688 44.753906 37.9375 44.734375 37.9375 44.695312 C 37.941406 44.617188 37.898438 44.511719 37.871094 44.535156 C 37.859375 44.546875 37.84375 44.527344 37.8125 44.472656 C 37.769531 44.394531 37.746094 44.394531 37.746094 44.46875 C 37.742188 44.496094 37.742188 44.496094 37.726562 44.472656 C 37.707031 44.4375 37.734375 44.253906 37.773438 44.164062 C 37.789062 44.128906 37.820312 44.09375 37.839844 44.082031 C 37.863281 44.070312 37.886719 44.042969 37.894531 44.011719 C 37.914062 43.953125 37.921875 43.9375 38.003906 43.773438 C 38.0625 43.664062 38.074219 43.621094 38.039062 43.671875 C 38.027344 43.6875 38.011719 43.699219 38.007812 43.691406 C 38.003906 43.6875 38.0625 43.621094 38.140625 43.546875 C 38.261719 43.433594 38.285156 43.402344 38.292969 43.351562 C 38.308594 43.238281 38.347656 43.101562 38.378906 43.035156 C 38.402344 42.984375 38.429688 42.957031 38.484375 42.925781 C 38.59375 42.867188 38.625 42.832031 38.6875 42.675781 C 38.753906 42.511719 38.785156 42.480469 38.894531 42.46875 C 39 42.457031 39.113281 42.410156 39.164062 42.355469 C 39.1875 42.332031 39.257812 42.273438 39.3125 42.230469 C 39.371094 42.1875 39.457031 42.109375 39.5 42.054688 C 39.617188 41.902344 39.648438 41.8125 39.597656 41.753906 C 39.578125 41.734375 39.570312 41.695312 39.566406 41.617188 C 39.566406 41.5 39.582031 41.445312 39.652344 41.347656 C 39.675781 41.3125 39.703125 41.253906 39.710938 41.214844 C 39.714844 41.175781 39.730469 41.128906 39.742188 41.117188 C 39.863281 40.960938 39.886719 40.941406 40.027344 40.875 C 40.226562 40.78125 40.253906 40.769531 40.308594 40.714844 C 40.371094 40.660156 40.449219 40.507812 40.484375 40.382812 C 40.535156 40.203125 40.550781 40.171875 40.605469 40.144531 C 40.683594 40.109375 40.710938 40.113281 40.730469 40.171875 C 40.753906 40.234375 40.832031 40.3125 40.894531 40.328125 C 40.917969 40.335938 40.964844 40.335938 41 40.332031 C 41.035156 40.324219 41.105469 40.324219 41.160156 40.328125 C 41.242188 40.332031 41.261719 40.328125 41.285156 40.304688 C 41.316406 40.273438 41.316406 40.273438 41.332031 40.3125 C 41.34375 40.351562 41.351562 40.355469 41.425781 40.359375 C 41.46875 40.363281 41.527344 40.367188 41.550781 40.367188 C 41.617188 40.367188 41.738281 40.304688 41.761719 40.253906 C 41.789062 40.199219 41.839844 40.164062 41.890625 40.164062 C 41.914062 40.164062 41.9375 40.15625 41.945312 40.140625 C 41.957031 40.117188 41.964844 40.117188 42.007812 40.136719 C 42.054688 40.15625 42.0625 40.152344 42.074219 40.128906 C 42.15625 39.992188 42.25 39.949219 42.527344 39.914062 C 42.664062 39.898438 42.75 39.882812 42.773438 39.867188 C 42.796875 39.847656 42.84375 39.839844 42.898438 39.839844 C 42.949219 39.839844 42.996094 39.832031 43.003906 39.824219 C 43.042969 39.78125 43.375 39.816406 43.375 39.859375 C 43.375 39.890625 43.425781 39.886719 43.492188 39.851562 C 43.523438 39.835938 43.566406 39.820312 43.589844 39.820312 C 43.617188 39.820312 43.636719 39.808594 43.652344 39.78125 C 43.683594 39.742188 43.714844 39.734375 43.757812 39.769531 C 43.773438 39.78125 43.816406 39.789062 43.851562 39.789062 C 43.90625 39.789062 43.917969 39.785156 43.910156 39.765625 C 43.902344 39.746094 43.90625 39.742188 43.933594 39.753906 C 43.953125 39.757812 43.984375 39.765625 44.003906 39.769531 C 44.027344 39.777344 44.046875 39.789062 44.054688 39.800781 C 44.0625 39.8125 44.078125 39.816406 44.09375 39.8125 C 44.109375 39.808594 44.15625 39.800781 44.195312 39.800781 C 44.246094 39.796875 44.296875 39.777344 44.355469 39.738281 C 44.464844 39.671875 44.527344 39.660156 44.609375 39.6875 C 44.660156 39.703125 44.671875 39.714844 44.667969 39.742188 C 44.667969 39.757812 44.671875 39.777344 44.679688 39.78125 C 44.6875 39.789062 44.695312 39.804688 44.695312 39.820312 C 44.695312 39.863281 44.726562 39.859375 44.792969 39.804688 C 44.859375 39.753906 44.867188 39.753906 44.890625 39.78125 C 44.90625 39.800781 44.902344 39.8125 44.878906 39.847656 C 44.863281 39.871094 44.847656 39.898438 44.84375 39.914062 C 44.835938 39.929688 44.816406 39.949219 44.792969 39.957031 C 44.714844 39.996094 44.726562 40.097656 44.816406 40.164062 C 44.851562 40.1875 44.878906 40.214844 44.878906 40.222656 C 44.878906 40.226562 44.886719 40.253906 44.890625 40.28125 C 44.910156 40.359375 44.851562 40.460938 44.726562 40.5625 C 44.667969 40.609375 44.621094 40.660156 44.621094 40.671875 C 44.621094 40.703125 44.660156 40.765625 44.695312 40.792969 C 44.707031 40.800781 44.738281 40.808594 44.765625 40.808594 C 44.804688 40.804688 44.808594 40.808594 44.804688 40.839844 L 44.796875 40.878906 L 44.835938 40.84375 C 44.863281 40.820312 44.875 40.816406 44.886719 40.828125 C 44.898438 40.839844 44.90625 40.859375 44.90625 40.875 C 44.90625 40.886719 44.914062 40.902344 44.921875 40.910156 C 44.929688 40.914062 44.933594 40.925781 44.925781 40.933594 C 44.921875 40.941406 44.929688 40.949219 44.945312 40.945312 C 44.976562 40.941406 45.023438 40.960938 45.152344 41.023438 C 45.226562 41.0625 45.25 41.066406 45.308594 41.058594 C 45.472656 41.039062 45.574219 41.054688 45.710938 41.125 C 45.765625 41.15625 45.820312 41.171875 45.855469 41.171875 C 45.929688 41.171875 45.964844 41.207031 45.980469 41.296875 C 45.988281 41.371094 46.035156 41.445312 46.09375 41.488281 C 46.117188 41.507812 46.179688 41.523438 46.253906 41.53125 C 46.488281 41.5625 46.691406 41.644531 46.804688 41.757812 C 46.855469 41.808594 46.898438 41.824219 46.96875 41.8125 C 47.074219 41.792969 47.1875 41.675781 47.1875 41.589844 C 47.1875 41.566406 47.175781 41.511719 47.15625 41.46875 C 47.117188 41.371094 47.128906 41.316406 47.195312 41.234375 C 47.257812 41.164062 47.394531 41.082031 47.457031 41.082031 C 47.480469 41.082031 47.515625 41.070312 47.535156 41.054688 C 47.554688 41.042969 47.605469 41.027344 47.644531 41.027344 C 47.707031 41.023438 47.742188 41.03125 47.835938 41.078125 C 47.929688 41.125 47.949219 41.140625 47.953125 41.175781 C 47.957031 41.230469 47.976562 41.242188 48.082031 41.261719 C 48.128906 41.269531 48.175781 41.285156 48.1875 41.292969 C 48.195312 41.300781 48.25 41.308594 48.308594 41.308594 C 48.421875 41.308594 48.441406 41.316406 48.457031 41.386719 C 48.472656 41.449219 48.492188 41.457031 48.585938 41.441406 C 48.652344 41.425781 48.695312 41.429688 48.824219 41.457031 C 48.910156 41.476562 49.007812 41.503906 49.039062 41.519531 C 49.070312 41.535156 49.109375 41.546875 49.121094 41.546875 C 49.136719 41.542969 49.167969 41.550781 49.191406 41.558594 C 49.214844 41.570312 49.246094 41.578125 49.265625 41.578125 C 49.285156 41.578125 49.335938 41.59375 49.378906 41.613281 C 49.421875 41.636719 49.476562 41.652344 49.496094 41.652344 C 49.511719 41.652344 49.570312 41.621094 49.625 41.582031 C 49.679688 41.539062 49.730469 41.511719 49.746094 41.515625 C 49.761719 41.519531 49.777344 41.507812 49.78125 41.492188 C 49.785156 41.46875 49.800781 41.464844 49.839844 41.464844 C 49.871094 41.464844 49.882812 41.46875 49.871094 41.476562 C 49.84375 41.492188 49.878906 41.492188 49.929688 41.472656 C 49.949219 41.464844 49.964844 41.449219 49.960938 41.441406 C 49.945312 41.417969 49.992188 41.425781 50.042969 41.449219 C 50.070312 41.464844 50.101562 41.46875 50.132812 41.460938 C 50.179688 41.453125 50.179688 41.453125 50.171875 41.492188 C 50.167969 41.519531 50.171875 41.535156 50.195312 41.539062 C 50.210938 41.546875 50.222656 41.554688 50.222656 41.5625 C 50.222656 41.570312 50.230469 41.578125 50.246094 41.578125 C 50.257812 41.578125 50.265625 41.5625 50.265625 41.546875 L 50.265625 41.515625 L 50.316406 41.546875 C 50.375 41.582031 50.441406 41.585938 50.472656 41.554688 C 50.503906 41.523438 50.519531 41.527344 50.511719 41.566406 C 50.503906 41.59375 50.507812 41.597656 50.523438 41.582031 C 50.535156 41.574219 50.574219 41.566406 50.609375 41.566406 C 50.640625 41.566406 50.691406 41.554688 50.71875 41.539062 C 50.742188 41.527344 50.769531 41.519531 50.769531 41.519531 C 50.78125 41.53125 50.898438 41.867188 50.921875 41.953125 L 50.945312 42.039062 L 50.882812 42.222656 C 50.851562 42.324219 50.824219 42.425781 50.824219 42.449219 C 50.824219 42.472656 50.808594 42.503906 50.796875 42.523438 L 50.769531 42.554688 L 50.691406 42.496094 C 50.585938 42.410156 50.511719 42.320312 50.5 42.253906 C 50.496094 42.226562 50.464844 42.160156 50.433594 42.109375 C 50.402344 42.0625 50.371094 41.996094 50.363281 41.96875 C 50.355469 41.925781 50.351562 41.921875 50.332031 41.949219 C 50.304688 41.984375 50.308594 42.023438 50.34375 42.070312 C 50.359375 42.089844 50.371094 42.125 50.371094 42.148438 C 50.371094 42.210938 50.4375 42.328125 50.527344 42.429688 C 50.59375 42.5 50.613281 42.53125 50.609375 42.5625 C 50.609375 42.585938 50.632812 42.652344 50.664062 42.707031 C 50.691406 42.765625 50.71875 42.824219 50.71875 42.84375 C 50.71875 42.859375 50.765625 42.964844 50.824219 43.078125 C 50.886719 43.191406 50.960938 43.335938 50.992188 43.402344 C 51.027344 43.480469 51.070312 43.542969 51.113281 43.578125 C 51.171875 43.628906 51.171875 43.632812 51.140625 43.632812 C 51.105469 43.632812 51.105469 43.636719 51.109375 43.742188 C 51.121094 43.863281 51.144531 43.90625 51.246094 43.972656 C 51.378906 44.0625 51.453125 44.128906 51.453125 44.167969 C 51.453125 44.1875 51.46875 44.242188 51.484375 44.289062 C 51.503906 44.339844 51.519531 44.394531 51.523438 44.414062 C 51.523438 44.4375 51.535156 44.550781 51.542969 44.671875 C 51.566406 44.9375 51.59375 45.03125 51.652344 45.046875 C 51.703125 45.0625 51.769531 45.117188 51.769531 45.144531 C 51.769531 45.15625 51.78125 45.164062 51.796875 45.164062 C 51.816406 45.164062 51.84375 45.179688 51.863281 45.195312 C 51.929688 45.253906 52.039062 45.535156 52.039062 45.652344 C 52.039062 45.695312 52.101562 45.84375 52.136719 45.886719 C 52.144531 45.898438 52.160156 45.925781 52.164062 45.949219 C 52.175781 46.003906 52.195312 46.003906 52.195312 45.949219 C 52.195312 45.882812 52.222656 45.890625 52.261719 45.964844 C 52.292969 46.03125 52.296875 46.039062 52.339844 46.03125 C 52.371094 46.023438 52.386719 46.027344 52.410156 46.058594 C 52.425781 46.078125 52.457031 46.097656 52.472656 46.097656 C 52.507812 46.097656 52.632812 46.203125 52.648438 46.25 C 52.652344 46.265625 52.691406 46.300781 52.738281 46.332031 C 52.792969 46.367188 52.824219 46.398438 52.835938 46.433594 C 52.84375 46.464844 52.859375 46.488281 52.871094 46.488281 C 52.882812 46.488281 52.910156 46.511719 52.929688 46.539062 C 52.953125 46.570312 52.980469 46.585938 52.996094 46.582031 C 53.011719 46.578125 53.035156 46.59375 53.054688 46.628906 C 53.128906 46.75 53.117188 46.804688 53.007812 46.855469 C 52.933594 46.886719 52.871094 46.9375 52.90625 46.9375 C 52.914062 46.9375 52.925781 46.929688 52.933594 46.921875 C 52.9375 46.914062 52.964844 46.90625 52.996094 46.90625 C 53.0625 46.910156 53.113281 46.949219 53.15625 47.03125 C 53.1875 47.089844 53.269531 47.164062 53.351562 47.203125 C 53.398438 47.222656 53.414062 47.226562 53.464844 47.210938 C 53.5 47.199219 53.558594 47.171875 53.589844 47.148438 C 53.644531 47.113281 53.664062 47.109375 53.800781 47.109375 C 53.949219 47.109375 53.957031 47.109375 54.03125 47.058594 C 54.101562 47.015625 54.121094 47.011719 54.179688 47.019531 C 54.222656 47.023438 54.285156 47.019531 54.332031 47.007812 C 54.378906 46.996094 54.46875 46.980469 54.527344 46.976562 C 54.589844 46.96875 54.652344 46.960938 54.664062 46.953125 C 54.679688 46.945312 54.726562 46.933594 54.769531 46.921875 C 54.832031 46.910156 54.867188 46.890625 54.90625 46.851562 C 54.957031 46.804688 54.96875 46.800781 55.015625 46.808594 C 55.046875 46.816406 55.082031 46.828125 55.09375 46.835938 C 55.113281 46.851562 55.113281 46.863281 55.085938 46.921875 C 55.066406 46.960938 55.058594 46.992188 55.070312 47.003906 C 55.074219 47.011719 55.078125 47.0625 55.074219 47.113281 C 55.066406 47.164062 55.066406 47.207031 55.074219 47.207031 C 55.082031 47.207031 55.085938 47.203125 55.085938 47.195312 C 55.085938 47.1875 55.101562 47.183594 55.117188 47.1875 C 55.164062 47.199219 55.152344 47.222656 55.09375 47.222656 C 55.03125 47.222656 55.019531 47.242188 55.007812 47.375 C 55 47.460938 54.992188 47.488281 54.953125 47.539062 C 54.925781 47.570312 54.886719 47.632812 54.867188 47.675781 C 54.84375 47.71875 54.8125 47.773438 54.792969 47.800781 C 54.773438 47.824219 54.738281 47.886719 54.710938 47.9375 C 54.683594 47.984375 54.640625 48.066406 54.613281 48.113281 C 54.585938 48.164062 54.558594 48.226562 54.554688 48.253906 C 54.546875 48.316406 54.492188 48.402344 54.292969 48.671875 C 54.089844 48.945312 53.800781 49.238281 53.652344 49.316406 C 53.386719 49.460938 53.367188 49.476562 52.980469 49.859375 C 52.851562 49.980469 52.773438 50.078125 52.710938 50.179688 C 52.636719 50.300781 52.601562 50.339844 52.554688 50.351562 C 52.535156 50.359375 52.519531 50.367188 52.523438 50.375 C 52.527344 50.378906 52.519531 50.398438 52.503906 50.410156 C 52.488281 50.425781 52.472656 50.429688 52.472656 50.425781 C 52.472656 50.417969 52.464844 50.429688 52.457031 50.445312 C 52.449219 50.46875 52.425781 50.484375 52.386719 50.496094 C 52.3125 50.515625 52.300781 50.53125 52.289062 50.617188 C 52.285156 50.652344 52.273438 50.691406 52.261719 50.699219 C 52.234375 50.722656 52.203125 50.777344 52.203125 50.808594 C 52.203125 50.84375 52.167969 50.890625 52.152344 50.875 C 52.144531 50.867188 52.144531 50.871094 52.148438 50.882812 C 52.167969 50.910156 52.117188 51.003906 52.078125 51.019531 C 52.050781 51.03125 52.039062 51.050781 52.03125 51.09375 C 52.027344 51.125 52.003906 51.191406 51.984375 51.242188 C 51.964844 51.292969 51.949219 51.367188 51.949219 51.402344 C 51.949219 51.464844 51.953125 51.476562 51.984375 51.488281 C 52.003906 51.496094 52.03125 51.519531 52.046875 51.539062 C 52.058594 51.558594 52.085938 51.578125 52.101562 51.585938 C 52.136719 51.597656 52.136719 51.625 52.097656 51.691406 C 52.0625 51.761719 52.0625 51.792969 52.09375 51.839844 C 52.113281 51.871094 52.113281 51.878906 52.09375 51.921875 C 52.0625 51.980469 52.0625 51.992188 52.097656 52.058594 C 52.113281 52.085938 52.121094 52.117188 52.117188 52.128906 C 52.113281 52.140625 52.121094 52.160156 52.136719 52.167969 C 52.152344 52.179688 52.160156 52.199219 52.152344 52.214844 C 52.148438 52.230469 52.152344 52.25 52.160156 52.261719 C 52.167969 52.273438 52.175781 52.304688 52.179688 52.335938 C 52.179688 52.363281 52.1875 52.386719 52.199219 52.386719 C 52.207031 52.386719 52.234375 52.40625 52.253906 52.425781 C 52.277344 52.445312 52.296875 52.460938 52.300781 52.460938 C 52.320312 52.460938 52.351562 52.488281 52.375 52.523438 C 52.398438 52.5625 52.394531 52.632812 52.367188 52.707031 C 52.359375 52.730469 52.355469 52.773438 52.359375 52.804688 C 52.367188 52.835938 52.375 52.902344 52.375 52.953125 C 52.378906 53.003906 52.390625 53.058594 52.398438 53.078125 C 52.410156 53.097656 52.40625 53.109375 52.390625 53.125 C 52.375 53.136719 52.371094 53.148438 52.382812 53.160156 C 52.394531 53.171875 52.398438 53.210938 52.394531 53.246094 C 52.386719 53.28125 52.390625 53.335938 52.402344 53.363281 C 52.414062 53.40625 52.414062 53.429688 52.398438 53.453125 C 52.386719 53.480469 52.386719 53.484375 52.40625 53.484375 C 52.425781 53.484375 52.429688 53.492188 52.421875 53.515625 C 52.414062 53.535156 52.417969 53.542969 52.425781 53.539062 C 52.449219 53.523438 52.464844 53.59375 52.449219 53.636719 C 52.441406 53.65625 52.4375 53.675781 52.441406 53.683594 C 52.441406 53.691406 52.433594 53.699219 52.421875 53.703125 C 52.40625 53.710938 52.402344 53.726562 52.40625 53.75 C 52.414062 53.785156 52.398438 53.8125 52.316406 53.90625 C 52.261719 53.964844 52.21875 54.023438 52.21875 54.03125 C 52.21875 54.050781 52.164062 54.101562 52.105469 54.136719 C 52.082031 54.152344 52.046875 54.175781 52.03125 54.191406 C 52.015625 54.207031 51.972656 54.222656 51.941406 54.234375 C 51.867188 54.25 51.785156 54.277344 51.753906 54.296875 C 51.742188 54.304688 51.691406 54.332031 51.640625 54.355469 C 51.546875 54.40625 51.46875 54.46875 51.46875 54.496094 C 51.46875 54.507812 51.445312 54.535156 51.421875 54.558594 C 51.394531 54.582031 51.359375 54.628906 51.335938 54.660156 C 51.308594 54.707031 51.292969 54.714844 51.269531 54.710938 C 51.242188 54.703125 51.210938 54.726562 51.113281 54.828125 C 51.023438 54.921875 50.980469 54.960938 50.953125 54.960938 C 50.917969 54.960938 50.914062 54.96875 50.910156 55.007812 C 50.910156 55.03125 50.90625 55.074219 50.902344 55.097656 C 50.898438 55.128906 50.90625 55.152344 50.941406 55.1875 C 50.976562 55.222656 50.988281 55.253906 50.996094 55.304688 C 51 55.34375 51.015625 55.414062 51.03125 55.464844 C 51.050781 55.523438 51.0625 55.578125 51.054688 55.613281 C 51.046875 55.667969 51.050781 55.667969 51.066406 55.628906 C 51.074219 55.605469 51.089844 55.585938 51.09375 55.585938 C 51.097656 55.585938 51.105469 55.648438 51.109375 55.722656 C 51.117188 55.847656 51.109375 55.910156 51.070312 56.03125 C 51.0625 56.058594 51.066406 56.066406 51.085938 56.058594 C 51.125 56.042969 51.113281 56.132812 51.0625 56.199219 C 51.003906 56.277344 50.988281 56.289062 50.746094 56.382812 C 50.523438 56.46875 50.425781 56.527344 50.410156 56.582031 C 50.402344 56.597656 50.390625 56.625 50.378906 56.640625 C 50.359375 56.660156 50.359375 56.667969 50.386719 56.699219 C 50.414062 56.730469 50.417969 56.730469 50.433594 56.710938 C 50.460938 56.675781 50.4375 56.910156 50.394531 57.09375 C 50.347656 57.308594 50.300781 57.414062 50.226562 57.464844 C 50.117188 57.539062 50.046875 57.613281 50.003906 57.699219 C 49.980469 57.746094 49.949219 57.8125 49.933594 57.847656 C 49.859375 57.992188 49.734375 58.160156 49.636719 58.238281 C 49.582031 58.28125 49.507812 58.363281 49.46875 58.414062 C 49.382812 58.523438 49.253906 58.644531 49.09375 58.765625 C 48.929688 58.894531 48.855469 58.925781 48.730469 58.925781 C 48.648438 58.925781 48.625 58.933594 48.605469 58.953125 C 48.597656 58.96875 48.589844 58.992188 48.597656 59.003906 C 48.601562 59.023438 48.597656 59.027344 48.5625 59.019531 C 48.421875 58.988281 48.421875 58.988281 48.40625 59.03125 C 48.386719 59.078125 48.363281 59.078125 48.25 59.039062 C 48.15625 59.007812 48.035156 59 48.027344 59.027344 C 48.023438 59.039062 48 59.039062 47.933594 59.027344 C 47.796875 59 47.769531 59.003906 47.691406 59.0625 C 47.628906 59.113281 47.617188 59.117188 47.503906 59.121094 C 47.4375 59.121094 47.382812 59.125 47.382812 59.132812 C 47.382812 59.140625 47.363281 59.144531 47.335938 59.144531 C 47.296875 59.144531 47.273438 59.15625 47.234375 59.195312 C 47.171875 59.261719 47.097656 59.269531 47.027344 59.214844 Z M 38.898438 47.929688 C 38.886719 47.914062 38.875 47.902344 38.871094 47.90625 C 38.867188 47.914062 38.898438 47.957031 38.910156 47.957031 C 38.914062 47.957031 38.90625 47.945312 38.898438 47.929688 Z M 38.011719 46.644531 C 38.003906 46.636719 37.992188 46.636719 37.980469 46.640625 C 37.96875 46.648438 37.972656 46.652344 37.992188 46.652344 C 38.007812 46.652344 38.015625 46.648438 38.011719 46.644531 Z M 53.496094 56.507812 C 53.472656 56.488281 53.4375 56.472656 53.417969 56.472656 C 53.398438 56.472656 53.355469 56.453125 53.320312 56.429688 C 53.234375 56.363281 53.171875 56.207031 53.171875 56.042969 C 53.171875 55.9375 53.167969 55.910156 53.121094 55.824219 C 53.058594 55.699219 53.046875 55.585938 53.089844 55.503906 C 53.105469 55.472656 53.121094 55.429688 53.121094 55.410156 C 53.121094 55.386719 53.136719 55.367188 53.164062 55.351562 C 53.199219 55.335938 53.222656 55.304688 53.246094 55.25 C 53.265625 55.207031 53.300781 55.140625 53.328125 55.101562 C 53.367188 55.039062 53.371094 55.015625 53.371094 54.941406 C 53.367188 54.894531 53.355469 54.835938 53.339844 54.808594 C 53.328125 54.785156 53.316406 54.746094 53.316406 54.730469 C 53.316406 54.714844 53.300781 54.660156 53.285156 54.609375 C 53.269531 54.5625 53.253906 54.476562 53.25 54.417969 C 53.246094 54.320312 53.25 54.3125 53.300781 54.234375 C 53.335938 54.183594 53.363281 54.125 53.367188 54.082031 C 53.378906 54.015625 53.382812 54.011719 53.433594 54 C 53.464844 53.996094 53.507812 53.976562 53.53125 53.957031 C 53.566406 53.933594 53.574219 53.929688 53.585938 53.949219 C 53.59375 53.964844 53.601562 53.96875 53.621094 53.949219 C 53.636719 53.9375 53.648438 53.933594 53.65625 53.941406 C 53.660156 53.945312 53.675781 53.9375 53.6875 53.917969 C 53.699219 53.902344 53.722656 53.890625 53.742188 53.890625 C 53.757812 53.890625 53.78125 53.882812 53.792969 53.871094 C 53.804688 53.859375 53.8125 53.863281 53.828125 53.894531 C 53.835938 53.917969 53.851562 53.933594 53.859375 53.933594 C 53.867188 53.933594 53.867188 53.925781 53.859375 53.914062 C 53.839844 53.894531 53.851562 53.828125 53.871094 53.828125 C 53.875 53.828125 53.90625 53.808594 53.9375 53.785156 C 53.984375 53.75 54 53.742188 54.015625 53.757812 C 54.027344 53.765625 54.035156 53.785156 54.027344 53.792969 C 54.019531 53.820312 54.042969 53.820312 54.058594 53.796875 C 54.066406 53.785156 54.0625 53.777344 54.054688 53.773438 C 54.027344 53.765625 54.03125 53.746094 54.082031 53.671875 C 54.128906 53.601562 54.15625 53.59375 54.144531 53.65625 C 54.140625 53.675781 54.140625 53.695312 54.144531 53.695312 C 54.164062 53.695312 54.207031 53.59375 54.203125 53.554688 C 54.203125 53.53125 54.210938 53.507812 54.230469 53.496094 C 54.246094 53.484375 54.257812 53.46875 54.25 53.464844 C 54.246094 53.457031 54.25 53.453125 54.257812 53.453125 C 54.273438 53.453125 54.273438 53.445312 54.261719 53.421875 C 54.25 53.40625 54.246094 53.375 54.25 53.351562 C 54.253906 53.300781 54.300781 53.289062 54.3125 53.332031 C 54.324219 53.371094 54.351562 53.371094 54.363281 53.332031 C 54.367188 53.316406 54.375 53.304688 54.382812 53.304688 C 54.390625 53.304688 54.394531 53.296875 54.394531 53.285156 C 54.394531 53.273438 54.410156 53.265625 54.429688 53.265625 C 54.496094 53.269531 54.527344 53.105469 54.476562 53.042969 C 54.449219 53.015625 54.449219 53.015625 54.480469 53.023438 C 54.503906 53.027344 54.515625 53.023438 54.515625 53.011719 C 54.515625 53.003906 54.53125 52.988281 54.546875 52.976562 C 54.5625 52.964844 54.574219 52.953125 54.570312 52.945312 C 54.558594 52.925781 54.585938 52.894531 54.605469 52.90625 C 54.628906 52.917969 54.625 52.957031 54.601562 52.960938 C 54.59375 52.960938 54.597656 52.96875 54.617188 52.972656 C 54.640625 52.984375 54.664062 53.011719 54.675781 53.046875 C 54.691406 53.082031 54.707031 53.105469 54.714844 53.105469 C 54.746094 53.097656 54.804688 53.277344 54.824219 53.445312 C 54.839844 53.546875 54.859375 53.640625 54.882812 53.6875 C 54.910156 53.75 54.917969 53.777344 54.90625 53.820312 C 54.894531 53.878906 54.851562 53.949219 54.832031 53.949219 C 54.8125 53.949219 54.785156 53.910156 54.777344 53.863281 C 54.765625 53.800781 54.742188 53.785156 54.71875 53.820312 C 54.695312 53.851562 54.707031 53.957031 54.738281 54.011719 C 54.757812 54.042969 54.757812 54.058594 54.742188 54.097656 C 54.734375 54.121094 54.726562 54.144531 54.730469 54.152344 C 54.730469 54.160156 54.714844 54.1875 54.691406 54.207031 C 54.652344 54.246094 54.652344 54.257812 54.652344 54.386719 C 54.652344 54.515625 54.644531 54.542969 54.582031 54.722656 C 54.542969 54.832031 54.484375 55.015625 54.445312 55.136719 C 54.40625 55.253906 54.351562 55.421875 54.320312 55.503906 C 54.289062 55.589844 54.242188 55.742188 54.222656 55.84375 C 54.199219 55.945312 54.160156 56.082031 54.132812 56.148438 C 54.105469 56.214844 54.078125 56.289062 54.074219 56.308594 C 54.0625 56.347656 54 56.425781 53.976562 56.425781 C 53.921875 56.429688 53.75 56.480469 53.699219 56.507812 C 53.617188 56.558594 53.554688 56.558594 53.496094 56.507812 Z M 51.078125 55.464844 C 51.078125 55.445312 51.082031 55.4375 51.085938 55.449219 C 51.089844 55.457031 51.089844 55.472656 51.085938 55.484375 C 51.082031 55.496094 51.078125 55.488281 51.078125 55.464844 Z M 56.167969 55.371094 C 56.089844 55.332031 56.089844 55.253906 56.171875 55.242188 C 56.222656 55.238281 56.285156 55.320312 56.261719 55.359375 C 56.242188 55.390625 56.214844 55.394531 56.167969 55.371094 Z M 56.664062 55.152344 C 56.648438 55.140625 56.648438 55.128906 56.664062 55.09375 C 56.691406 55.023438 56.722656 55.003906 56.746094 55.039062 C 56.777344 55.078125 56.773438 55.101562 56.738281 55.136719 C 56.703125 55.167969 56.695312 55.171875 56.664062 55.152344 Z M 54.742188 54.21875 C 54.742188 54.207031 54.75 54.183594 54.761719 54.167969 C 54.792969 54.128906 54.792969 54.15625 54.765625 54.203125 C 54.75 54.230469 54.742188 54.234375 54.742188 54.21875 Z M 45.042969 54.105469 C 45.042969 54.089844 45.046875 54.085938 45.050781 54.097656 C 45.054688 54.109375 45.054688 54.121094 45.050781 54.125 C 45.046875 54.128906 45.042969 54.121094 45.042969 54.105469 Z M 54.320312 53.25 C 54.320312 53.238281 54.332031 53.230469 54.34375 53.230469 C 54.355469 53.230469 54.367188 53.238281 54.367188 53.25 C 54.367188 53.265625 54.355469 53.273438 54.34375 53.273438 C 54.332031 53.273438 54.320312 53.265625 54.320312 53.25 Z M 53.539062 53.167969 C 53.523438 53.089844 53.523438 53.078125 53.542969 53.082031 C 53.570312 53.089844 53.578125 53.136719 53.554688 53.160156 C 53.546875 53.167969 53.539062 53.171875 53.539062 53.167969 Z M 53.164062 52.988281 C 53.164062 52.980469 53.175781 52.972656 53.1875 52.972656 C 53.199219 52.972656 53.210938 52.980469 53.21875 52.988281 C 53.222656 52.996094 53.210938 53.003906 53.195312 53.003906 C 53.179688 53.003906 53.164062 52.996094 53.164062 52.988281 Z M 53.347656 52.976562 L 53.3125 52.949219 L 53.347656 52.9375 C 53.386719 52.929688 53.394531 52.933594 53.386719 52.972656 C 53.382812 53 53.382812 53 53.347656 52.976562 Z M 53.085938 52.871094 C 53.058594 52.84375 53.050781 52.769531 53.074219 52.757812 C 53.097656 52.742188 53.121094 52.789062 53.117188 52.847656 C 53.113281 52.902344 53.113281 52.902344 53.085938 52.871094 Z M 52.164062 51.894531 C 52.171875 51.886719 52.164062 51.878906 52.15625 51.875 C 52.140625 51.867188 52.148438 51.851562 52.175781 51.824219 C 52.199219 51.800781 52.21875 51.789062 52.21875 51.796875 C 52.21875 51.824219 52.183594 51.90625 52.167969 51.90625 C 52.164062 51.90625 52.160156 51.902344 52.164062 51.894531 Z M 52.070312 51.460938 C 52.042969 51.4375 52.039062 51.421875 52.042969 51.375 C 52.046875 51.300781 52.078125 51.289062 52.089844 51.359375 C 52.09375 51.386719 52.105469 51.410156 52.113281 51.410156 C 52.121094 51.410156 52.128906 51.429688 52.128906 51.449219 C 52.128906 51.492188 52.117188 51.496094 52.070312 51.460938 Z M 52.152344 51.175781 C 52.164062 51.09375 52.164062 51.089844 52.1875 51.105469 C 52.214844 51.121094 52.207031 51.214844 52.175781 51.230469 C 52.144531 51.246094 52.144531 51.242188 52.152344 51.175781 Z M 44.234375 49.042969 C 44.214844 49.035156 44.207031 48.980469 44.230469 48.980469 C 44.238281 48.980469 44.246094 48.96875 44.253906 48.953125 C 44.257812 48.9375 44.277344 48.917969 44.300781 48.90625 C 44.351562 48.882812 44.363281 48.921875 44.328125 48.984375 C 44.289062 49.050781 44.273438 49.0625 44.234375 49.042969 Z M 37.949219 47.023438 C 37.941406 46.988281 37.953125 46.960938 37.964844 46.992188 C 37.972656 47.019531 38.03125 47.019531 38.03125 46.996094 C 38.03125 46.984375 38.035156 46.980469 38.039062 46.984375 C 38.054688 47.003906 38.019531 47.050781 37.988281 47.054688 C 37.96875 47.054688 37.957031 47.046875 37.949219 47.023438 Z M 38.058594 47.007812 C 38.058594 46.992188 38.066406 46.984375 38.074219 46.984375 C 38.082031 46.984375 38.089844 46.988281 38.089844 46.996094 C 38.089844 47.003906 38.082031 47.015625 38.074219 47.019531 C 38.066406 47.023438 38.058594 47.019531 38.058594 47.007812 Z M 37.917969 46.9375 C 37.898438 46.929688 37.894531 46.925781 37.90625 46.917969 C 37.917969 46.910156 37.933594 46.914062 37.949219 46.917969 C 37.980469 46.9375 37.957031 46.953125 37.917969 46.9375 Z M 37.988281 46.933594 C 37.996094 46.90625 38.03125 46.902344 38.03125 46.929688 C 38.03125 46.941406 38.019531 46.953125 38.007812 46.953125 C 37.992188 46.953125 37.984375 46.945312 37.988281 46.933594 Z M 35.839844 46.039062 C 35.84375 46.027344 35.855469 46.015625 35.867188 46.015625 C 35.878906 46.015625 35.890625 46.027344 35.894531 46.039062 C 35.898438 46.058594 35.890625 46.066406 35.867188 46.066406 C 35.84375 46.066406 35.835938 46.058594 35.839844 46.039062 Z M 36.042969 46.027344 C 36.015625 46.003906 36.011719 45.960938 36.027344 45.941406 C 36.042969 45.925781 36.109375 45.992188 36.109375 46.023438 C 36.109375 46.058594 36.074219 46.058594 36.042969 46.027344 Z M 36.167969 45.960938 C 36.167969 45.945312 36.175781 45.929688 36.183594 45.929688 C 36.191406 45.929688 36.199219 45.945312 36.199219 45.960938 C 36.199219 45.976562 36.191406 45.992188 36.183594 45.992188 C 36.175781 45.992188 36.167969 45.976562 36.167969 45.960938 Z M 52.25 45.855469 C 52.222656 45.832031 52.21875 45.820312 52.234375 45.804688 C 52.246094 45.792969 52.253906 45.796875 52.269531 45.816406 C 52.28125 45.828125 52.300781 45.839844 52.316406 45.839844 C 52.328125 45.839844 52.339844 45.851562 52.335938 45.859375 C 52.324219 45.890625 52.28125 45.890625 52.25 45.855469 Z M 36.242188 45.730469 C 36.242188 45.691406 36.269531 45.679688 36.300781 45.707031 C 36.320312 45.730469 36.304688 45.765625 36.269531 45.765625 C 36.25 45.765625 36.242188 45.753906 36.242188 45.730469 Z M 52.25 45.75 C 52.25 45.742188 52.253906 45.738281 52.265625 45.738281 C 52.273438 45.738281 52.277344 45.742188 52.277344 45.75 C 52.277344 45.757812 52.273438 45.765625 52.265625 45.765625 C 52.253906 45.765625 52.25 45.757812 52.25 45.75 Z M 35.875 45.621094 C 35.871094 45.613281 35.867188 45.605469 35.867188 45.597656 C 35.867188 45.582031 35.9375 45.582031 35.949219 45.597656 C 35.957031 45.613281 35.886719 45.632812 35.875 45.621094 Z M 36.234375 45.582031 C 36.230469 45.566406 36.226562 45.550781 36.234375 45.546875 C 36.25 45.53125 36.261719 45.550781 36.253906 45.582031 C 36.246094 45.609375 36.246094 45.609375 36.234375 45.582031 Z M 35.707031 45.539062 C 35.707031 45.53125 35.71875 45.523438 35.726562 45.523438 C 35.734375 45.523438 35.742188 45.53125 35.746094 45.539062 C 35.746094 45.550781 35.738281 45.554688 35.726562 45.554688 C 35.710938 45.554688 35.703125 45.550781 35.707031 45.539062 Z M 35.628906 45.5 C 35.628906 45.476562 35.664062 45.449219 35.691406 45.449219 C 35.722656 45.449219 35.726562 45.488281 35.695312 45.503906 C 35.660156 45.515625 35.628906 45.511719 35.628906 45.5 Z M 50.207031 41.496094 C 50.175781 41.460938 50.199219 41.453125 50.230469 41.488281 C 50.246094 41.503906 50.25 41.515625 50.242188 41.515625 C 50.234375 41.515625 50.21875 41.507812 50.207031 41.496094 Z M 44.808594 40.796875 C 44.78125 40.765625 44.789062 40.738281 44.832031 40.738281 C 44.875 40.738281 44.894531 40.773438 44.863281 40.800781 C 44.839844 40.824219 44.835938 40.824219 44.808594 40.796875 Z M 44.863281 40.511719 C 44.863281 40.503906 44.875 40.496094 44.886719 40.492188 C 44.902344 40.484375 44.925781 40.476562 44.9375 40.472656 C 44.957031 40.464844 44.957031 40.464844 44.941406 40.484375 C 44.917969 40.511719 44.863281 40.53125 44.863281 40.511719 Z M 44.863281 40.511719 " fill-opacity="1" fill-rule="nonzero"/></g><g fill="#81a969" fill-opacity="0.4"><g transform="translate(159.10985, 76.199368)"><g><path d="M 15.390625 -31.78125 L 15.390625 0 L 3.71875 0 L 3.71875 -51.203125 L 15.390625 -51.203125 L 35.75 -19.421875 L 35.875 -19.421875 L 35.875 -51.203125 L 47.546875 -51.203125 L 47.546875 0 L 35.875 0 L 15.515625 -31.78125 Z M 15.390625 -31.78125 "/></g></g></g><g fill="#81a969" fill-opacity="0.4"><g transform="translate(207.085521, 76.199368)"><g><path d="M 35.9375 -14.40625 L 12.84375 -14.40625 C 12.84375 -12.164062 13.566406 -10.503906 15.015625 -9.421875 C 16.460938 -8.347656 18.035156 -7.8125 19.734375 -7.8125 C 21.515625 -7.8125 22.921875 -8.050781 23.953125 -8.53125 C 24.984375 -9.007812 26.164062 -9.953125 27.5 -11.359375 L 35.4375 -7.390625 C 32.125 -1.835938 26.617188 0.9375 18.921875 0.9375 C 14.128906 0.9375 10.015625 -0.707031 6.578125 -4 C 3.140625 -7.289062 1.421875 -11.253906 1.421875 -15.890625 C 1.421875 -20.523438 3.140625 -24.492188 6.578125 -27.796875 C 10.015625 -31.109375 14.128906 -32.765625 18.921875 -32.765625 C 23.972656 -32.765625 28.082031 -31.304688 31.25 -28.390625 C 34.414062 -25.472656 36 -21.304688 36 -15.890625 C 36 -15.140625 35.976562 -14.644531 35.9375 -14.40625 Z M 13.15625 -20.484375 L 25.265625 -20.484375 C 25.015625 -22.140625 24.359375 -23.410156 23.296875 -24.296875 C 22.242188 -25.179688 20.890625 -25.625 19.234375 -25.625 C 17.421875 -25.625 15.972656 -25.148438 14.890625 -24.203125 C 13.816406 -23.253906 13.238281 -22.015625 13.15625 -20.484375 Z M 13.15625 -20.484375 "/></g></g></g><g fill="#81a969" fill-opacity="0.4"><g transform="translate(241.220741, 76.199368)"><g><path d="M 40.59375 0 L 27.3125 0 L 20.296875 -9 L 13.28125 0 L 0 0 L 13.59375 -16.625 L 1.921875 -31.84375 L 14.765625 -31.84375 L 20.296875 -24.453125 L 25.8125 -31.84375 L 38.671875 -31.84375 L 27 -16.625 Z M 40.59375 0 "/></g></g></g><g fill="#231f20" fill-opacity="1"><g transform="translate(159.10985, 76.199368)"><g><path d="M 15.390625 -31.78125 L 15.390625 0 L 3.71875 0 L 3.71875 -51.203125 L 15.390625 -51.203125 L 35.75 -19.421875 L 35.875 -19.421875 L 35.875 -51.203125 L 47.546875 -51.203125 L 47.546875 0 L 35.875 0 L 15.515625 -31.78125 Z M 15.390625 -31.78125 "/></g></g></g><g fill="#231f20" fill-opacity="1"><g transform="translate(207.085521, 76.199368)"><g><path d="M 35.9375 -14.40625 L 12.84375 -14.40625 C 12.84375 -12.164062 13.566406 -10.503906 15.015625 -9.421875 C 16.460938 -8.347656 18.035156 -7.8125 19.734375 -7.8125 C 21.515625 -7.8125 22.921875 -8.050781 23.953125 -8.53125 C 24.984375 -9.007812 26.164062 -9.953125 27.5 -11.359375 L 35.4375 -7.390625 C 32.125 -1.835938 26.617188 0.9375 18.921875 0.9375 C 14.128906 0.9375 10.015625 -0.707031 6.578125 -4 C 3.140625 -7.289062 1.421875 -11.253906 1.421875 -15.890625 C 1.421875 -20.523438 3.140625 -24.492188 6.578125 -27.796875 C 10.015625 -31.109375 14.128906 -32.765625 18.921875 -32.765625 C 23.972656 -32.765625 28.082031 -31.304688 31.25 -28.390625 C 34.414062 -25.472656 36 -21.304688 36 -15.890625 C 36 -15.140625 35.976562 -14.644531 35.9375 -14.40625 Z M 13.15625 -20.484375 L 25.265625 -20.484375 C 25.015625 -22.140625 24.359375 -23.410156 23.296875 -24.296875 C 22.242188 -25.179688 20.890625 -25.625 19.234375 -25.625 C 17.421875 -25.625 15.972656 -25.148438 14.890625 -24.203125 C 13.816406 -23.253906 13.238281 -22.015625 13.15625 -20.484375 Z M 13.15625 -20.484375 "/></g></g></g><g fill="#231f20" fill-opacity="1"><g transform="translate(241.220741, 76.199368)"><g><path d="M 40.59375 0 L 27.3125 0 L 20.296875 -9 L 13.28125 0 L 0 0 L 13.59375 -16.625 L 1.921875 -31.84375 L 14.765625 -31.84375 L 20.296875 -24.453125 L 25.8125 -31.84375 L 38.671875 -31.84375 L 27 -16.625 Z M 40.59375 0 "/></g></g></g><g fill="#81a969" fill-opacity="0.4"><g transform="translate(278.524677, 76.199368)"><g/></g></g><g fill="#81a969" fill-opacity="0.4"><g transform="translate(292.17851, 76.199368)"><g/></g></g><g fill="#231f20" fill-opacity="1"><g transform="translate(278.524677, 76.199368)"><g/></g></g><g fill="#231f20" fill-opacity="1"><g transform="translate(292.17851, 76.199368)"><g/></g></g><g fill="#231f20" fill-opacity="1"><g transform="translate(124.161099, 95.134507)"><g><path d="M 1 0 L 1 -6.8125 L 5.125 -6.8125 L 5.125 -6.015625 L 1.84375 -6.015625 L 1.84375 -3.859375 L 4.890625 -3.859375 L 4.890625 -3.078125 L 1.84375 -3.078125 L 1.84375 -0.796875 L 5.234375 -0.796875 L 5.234375 0 Z M 1 0 "/></g></g></g><g fill="#231f20" fill-opacity="1"><g transform="translate(132.710723, 95.134507)"><g><path d="M 1 0 L 1 -6.8125 L 1.796875 -6.8125 L 5.5625 -1.484375 L 5.5625 -6.8125 L 6.40625 -6.8125 L 6.40625 0 L 5.609375 0 L 1.84375 -5.328125 L 1.84375 0 Z M 1 0 "/></g></g></g><g fill="#231f20" fill-opacity="1"><g transform="translate(142.788494, 95.134507)"><g><path d="M 1 0 L 1 -6.8125 L 5.125 -6.8125 L 5.125 -6.015625 L 1.84375 -6.015625 L 1.84375 -3.859375 L 4.890625 -3.859375 L 4.890625 -3.078125 L 1.84375 -3.078125 L 1.84375 -0.796875 L 5.234375 -0.796875 L 5.234375 0 Z M 1 0 "/></g></g></g><g fill="#231f20" fill-opacity="1"><g transform="translate(151.338119, 95.134507)"><g><path d="M 1 0 L 1 -6.8125 L 3.59375 -6.8125 C 4.0625 -6.8125 4.472656 -6.722656 4.828125 -6.546875 C 5.179688 -6.367188 5.453125 -6.117188 5.640625 -5.796875 C 5.835938 -5.472656 5.9375 -5.082031 5.9375 -4.625 C 5.9375 -4.070312 5.789062 -3.613281 5.5 -3.25 C 5.21875 -2.894531 4.828125 -2.65625 4.328125 -2.53125 L 6.046875 0 L 5.015625 0 L 3.34375 -2.4375 L 1.84375 -2.4375 L 1.84375 0 Z M 1.84375 -3.265625 L 3.5 -3.265625 C 4 -3.265625 4.382812 -3.378906 4.65625 -3.609375 C 4.925781 -3.847656 5.0625 -4.1875 5.0625 -4.625 C 5.0625 -5.0625 4.925781 -5.398438 4.65625 -5.640625 C 4.382812 -5.878906 4 -6 3.5 -6 L 1.84375 -6 Z M 1.84375 -3.265625 "/></g></g></g><g fill="#231f20" fill-opacity="1"><g transform="translate(160.646955, 95.134507)"><g><path d="M 4.03125 0.125 C 3.53125 0.125 3.066406 0.0351562 2.640625 -0.140625 C 2.222656 -0.316406 1.859375 -0.5625 1.546875 -0.875 C 1.234375 -1.1875 0.988281 -1.554688 0.8125 -1.984375 C 0.644531 -2.421875 0.5625 -2.894531 0.5625 -3.40625 C 0.5625 -3.914062 0.644531 -4.382812 0.8125 -4.8125 C 0.988281 -5.25 1.226562 -5.625 1.53125 -5.9375 C 1.84375 -6.257812 2.207031 -6.503906 2.625 -6.671875 C 3.050781 -6.847656 3.515625 -6.9375 4.015625 -6.9375 C 4.535156 -6.9375 5.015625 -6.84375 5.453125 -6.65625 C 5.890625 -6.46875 6.269531 -6.203125 6.59375 -5.859375 C 6.914062 -5.523438 7.148438 -5.132812 7.296875 -4.6875 L 6.359375 -4.6875 C 6.140625 -5.132812 5.828125 -5.476562 5.421875 -5.71875 C 5.023438 -5.957031 4.566406 -6.078125 4.046875 -6.078125 C 3.535156 -6.078125 3.082031 -5.960938 2.6875 -5.734375 C 2.300781 -5.515625 1.992188 -5.203125 1.765625 -4.796875 C 1.546875 -4.398438 1.4375 -3.9375 1.4375 -3.40625 C 1.4375 -2.882812 1.546875 -2.421875 1.765625 -2.015625 C 1.992188 -1.609375 2.304688 -1.289062 2.703125 -1.0625 C 3.097656 -0.84375 3.546875 -0.734375 4.046875 -0.734375 C 4.503906 -0.734375 4.910156 -0.820312 5.265625 -1 C 5.628906 -1.1875 5.921875 -1.4375 6.140625 -1.75 C 6.367188 -2.070312 6.515625 -2.445312 6.578125 -2.875 L 3.796875 -2.875 L 3.796875 -3.703125 L 7.5 -3.703125 C 7.507812 -2.953125 7.367188 -2.289062 7.078125 -1.71875 C 6.796875 -1.144531 6.390625 -0.691406 5.859375 -0.359375 C 5.335938 -0.0351562 4.726562 0.125 4.03125 0.125 Z M 4.03125 0.125 "/></g></g></g><g fill="#231f20" fill-opacity="1"><g transform="translate(171.357396, 95.134507)"><g><path d="M 2.71875 0 L 2.71875 -2.453125 L 0.171875 -6.8125 L 1.15625 -6.8125 L 2.265625 -4.90625 L 3.15625 -3.375 L 5.15625 -6.8125 L 6.125 -6.8125 L 3.5625 -2.453125 L 3.5625 0 Z M 2.71875 0 "/></g></g></g></svg>